<?xml version="1.0" encoding="UTF-8"?>
<!DOCTYPE svg PUBLIC "-//W3C//DTD SVG 1.1//EN" "http://www.w3.org/Graphics/SVG/1.1/DTD/svg11.dtd">
<!-- Creator: CorelDRAW (Evaluation Version) -->
<svg xmlns="http://www.w3.org/2000/svg" xml:space="preserve" width="297mm" height="210mm" version="1.1" style="shape-rendering:geometricPrecision; text-rendering:geometricPrecision; image-rendering:optimizeQuality; fill-rule:evenodd; clip-rule:evenodd"
viewBox="0 0 29700 21000"
 xmlns:xlink="http://www.w3.org/1999/xlink"
 xmlns:xodm="http://www.corel.com/coreldraw/odm/2003">
 <defs>
  <style type="text/css">
   <![CDATA[
    .fil4 {fill:#D2D3D5}
    .fil2 {fill:#373435}
    .fil1 {fill:#B22D30}
    .fil3 {fill:#FEFEFE;fill-rule:nonzero}
    .fil6 {fill:#373435;fill-rule:nonzero}
    .fil5 {fill:url(#id0)}
    .fil0 {fill:url(#id1)}
   ]]>
  </style>
  <linearGradient id="id0" gradientUnits="userSpaceOnUse" x1="11272.81" y1="10468.13" x2="20901.9" y2="10468.13">
   <stop offset="0" style="stop-opacity:1; stop-color:#FBAE31"/>
   <stop offset="0.0901961" style="stop-opacity:1; stop-color:#FEFEFE"/>
   <stop offset="0.188235" style="stop-opacity:1; stop-color:#FBAE31"/>
   <stop offset="0.309804" style="stop-opacity:1; stop-color:#FFFBD6"/>
   <stop offset="0.411765" style="stop-opacity:1; stop-color:#FBAE31"/>
   <stop offset="0.521569" style="stop-opacity:1; stop-color:#FFFBD6"/>
   <stop offset="0.670588" style="stop-opacity:1; stop-color:#FBAE31"/>
   <stop offset="0.831373" style="stop-opacity:1; stop-color:#FFFBD6"/>
   <stop offset="1" style="stop-opacity:1; stop-color:#FBAE31"/>
  </linearGradient>
  <linearGradient id="id1" gradientUnits="userSpaceOnUse" xlink:href="#id0" x1="5687.28" y1="10150.61" x2="23123.98" y2="10150.61">
  </linearGradient>
 </defs>
 <g id="Layer_x0020_1">
  <metadata id="CorelCorpID_0Corel-Layer"/>
  <path class="fil0" d="M14405.65 5315.54c4814.14,0 8718.33,2165.01 8718.33,4835.07 0,2669.92 -3904.19,4835.01 -8718.33,4835.01 -4814.15,0 -8718.34,-2165.09 -8718.34,-4835.01 0,-2670.06 3904.19,-4835.07 8718.34,-4835.07z"/>
  <path class="fil1" d="M14173.33 4967.04c4814.1,0 8718.33,2165.08 8718.33,4835.07 0,2669.92 -3904.23,4834.97 -8718.33,4834.97 -4814.15,0 -8718.37,-2165.05 -8718.37,-4834.97 0,-2669.99 3904.22,-4835.07 8718.37,-4835.07z"/>
  <path class="fil2" d="M14349.17 8017.9c-1104.43,-6.73 -2005.4,379.95 -2708.76,834.07 -121.07,77.93 -98.75,142.19 32.19,131.96 102.7,-8 20.31,52.68 -40.04,214.75 -263.41,705.88 -488.39,1430.71 152.27,2370.19 -51.11,450.94 -47.68,808.94 152.17,833.78 -18.53,203.72 -37.41,407.43 -55.97,611.29 -62.92,521.71 48,532.82 352.62,280.62 199.59,-165.43 301.56,-70.84 184.17,156.92 -182.52,354.23 -56.77,206.63 184.35,90.97 1063.66,-510.57 1874.1,-1058.62 3646.19,-1222.36 141.68,-8.04 283.06,-26.86 424.93,-24.77 804.48,12.12 -972.8,316.13 -1041.89,330.19 -350.32,71.97 -312.73,182.6 80.09,132.29 1110.02,-141.75 2184.16,-171.93 3245.58,-57.69 141.43,-10.23 157.58,-43.36 47.97,-99.22 -284.82,-6.1 -213.65,-85.75 -104.05,-189.87 51.33,-48.92 141.17,-93.46 136.13,-165.17 -5.77,-81.69 -99.77,-128.53 -160.2,-181.61 -204.96,-180.48 262.72,-211.54 496.24,-231.3 427.67,-46.8 854.97,-93.6 1282.17,-140.26 184.57,-46.94 182.38,-171.3 -55.97,-239.51 -575.71,-164.52 -658.97,-349.45 -424.64,-355.12 256.91,-6.43 260.86,89.18 160.2,-107.41 -57.35,-112.27 -147.27,-265.45 -79.97,-371.7 96.56,-152.34 325.52,-146.5 472.72,-247.73 34.63,-23.79 218,-90.17 184.27,-115.41 -81.5,-61.56 -409.07,36.82 -424.81,-66.17 -16.19,-108.87 169.81,-133.64 256.68,-198.34 201.86,-150.08 241.39,-95.06 -3.43,-206.57 -319.24,-145.73 -432.35,-445.46 -274.44,-453.57 387.26,-50.82 508,-163.34 339.62,-280.36 281.6,-195.75 206.38,-256.32 80.12,-297.43 -77.49,11.11 -160.32,64.96 -232.25,33.21 -202.36,-88.59 -145.74,-356.5 -8.11,-635.76 -93.42,57.79 -311.57,280.72 -280.37,173.24 49.29,-170.17 -8.84,-222.75 -104.34,-90.71 -150.77,208.75 -329.35,190.56 -328.44,-123.82 24.04,-176.35 -37.45,-209.45 -184.35,-99.19 -13.41,-258.66 172.08,-121.73 354.6,-182.34 310.76,-103.32 239.15,-265.93 -48.08,-214.93 -293.81,52.24 -257.53,-171.97 -448.71,-123.89 -480.72,182.71 -1602.21,268.93 -3108.73,165.1 18.63,63.46 37.45,126.92 55.9,190.05 -476.66,-89.84 -914.78,-69.89 -1306.1,82.6 -315.33,121.52 -600.69,92.33 -897.53,90.98z"/>
  <path class="fil3" d="M8234.92 7459.32l-111.94 421.1 -269.44 0 112.45 -421.1 -172.33 0 55.82 -206.01 603.95 0 -54.99 206.01 -163.52 0zm507.6 -258.33c11.66,0 20.1,2.49 25.58,6.76 5.37,4.86 8.33,11.76 8.33,21.34 0,8.22 -1.5,18.34 -4.61,30.36 -2.56,12.53 -6.43,23.52 -11.21,33.83 -4.83,10.23 -11.84,17.61 -21.12,22.46 -8.99,4.5 -21.48,6.76 -38,6.76l-165.97 0c-12.13,0 -20.68,-2.26 -26.31,-6.76 -5.59,-4.85 -8.62,-11.5 -8.62,-20.82 0,-8.62 1.72,-18.74 4.64,-30.8 3.14,-12.35 6.72,-23.53 11.66,-33.43 4.89,-10.85 11.87,-18.37 20.64,-23.12 8.99,-4.24 21.74,-6.58 38.21,-6.58l166.78 0zm-395.66 679.43l140.98 -525.58c22.43,3.8 43.37,6.72 63.13,8.33 19.88,1.86 38.84,2.41 57.62,2.41 20.24,0 41.21,-0.55 63.9,-2.41 22.65,-1.61 47.23,-4.53 73.5,-8.33l-140.65 525.58 -258.48 0zm350.91 0l142.85 -529.13 249.38 0c-4.39,21.38 -9.65,42.82 -15.68,64.3 -5.91,21.63 -12.27,42.75 -19.47,63.94 29.12,-50.71 61.53,-86.95 97.48,-108.22 36.13,-21.15 83.07,-31.89 141.64,-31.89 50.45,0 88.92,10.45 114.9,31.75 26.27,21.04 39.42,51.88 39.42,92.32 0,11.69 -1.21,25.13 -3.98,39.64 -2.6,15.09 -6.73,33.68 -12.72,55.82l-86.25 321.47 -256.73 0 57.1 -215.85c2.93,-8.91 4.79,-17.17 5.92,-24.26 1.39,-6.9 1.83,-13.15 1.83,-18.3 0,-13.44 -4.2,-24.7 -13.45,-32.77 -9.02,-8.26 -21.15,-12.6 -36.17,-12.6 -22.43,0 -41.32,6.72 -55.78,20.09 -14.87,12.97 -25.54,33.14 -32.81,59.81l-59.66 223.88 -257.82 0zm1207.27 -8.41c-46.8,8.01 -91.77,14.18 -135.29,18.34 -43.47,4.06 -84.39,6.07 -123.12,6.07 -50.71,0 -87.24,-7.49 -108.58,-22.47 -21.63,-15.05 -32.26,-39.6 -32.26,-73.87 0,-8.51 0.44,-16.3 1.46,-23.38 0.74,-7.13 2.23,-14.47 4.1,-21.23l53.99 -204.34 -85.23 0 27.22 -102.18c68.43,-48.26 120.2,-86.44 155.78,-114.68 35.47,-28.21 65.87,-54.95 91.55,-80.96l148.11 0 -25.68 97.98 206.13 0 -53.34 198.2 -206.13 0 -33.65 124.03c-0.95,4.1 -2.15,8.37 -2.52,12.57 -0.47,4.68 -0.95,9.28 -0.95,14.58 0,12.42 4.17,21.26 12.13,26.67 8.08,5.37 21.81,7.93 40.92,7.93 13.59,0 31.6,-1.21 53.92,-3.84 22.47,-3 49.03,-6.58 79.47,-11.36l-68.03 151.94zm501.76 -331.4c-18.82,0 -34.74,3.36 -48.01,10.74 -12.97,7.24 -24.69,19.07 -34.96,35.26 -7.23,12.31 -13.52,26.85 -18.92,44.02 -5.23,16.92 -7.68,31.35 -7.68,42.89 0,15.68 5.7,28.35 16.92,37.89 11.51,8.99 26.92,13.44 46.73,13.44 32.44,0 59.03,-12.27 79.57,-37.52 20.53,-24.99 30.32,-57.21 30.32,-96.26 0,-15.46 -5.63,-27.99 -17.46,-36.9 -11.47,-9.21 -27.22,-13.56 -46.51,-13.56zm382.07 -189.32l-141.57 529.13 -250.11 0c6.28,-18.49 12.42,-37.82 18.34,-58.02 5.52,-19.62 11.14,-40.48 16.33,-61.92 -27.55,48 -59,82.38 -94.66,103.75 -35.84,21.56 -79.97,32.19 -132.36,32.19 -54.77,0 -96.2,-13.19 -123.96,-39.31 -28.28,-26.64 -42.05,-65.84 -42.05,-117.57 0,-37.52 5.26,-78.4 15.74,-123.01 10.53,-44.75 24.59,-84.87 42.38,-120.96 28.02,-56.92 60.39,-97.81 96.85,-121.88 36.54,-24.59 83.27,-36.83 140.41,-36.83 54.21,0 94.98,9.32 121.98,27.15 26.97,18.01 44.47,47.6 52.72,89.47 2.41,-9.06 5.77,-24.88 11.15,-47.71 5.58,-22.58 9.79,-40.7 13.18,-54.48l255.63 0zm-42.3 521.05l36.24 -140.11c39.02,5.19 73.69,9.25 103.83,11.7 30.61,2.55 57.65,3.9 81.07,3.9 47.35,0 80.26,-2.63 98.75,-8.54 18.38,-5.48 27.91,-15.06 27.91,-28.57 0,-6.65 -2.34,-11.7 -6.65,-15.35 -4.6,-3.03 -11.21,-4.6 -20.27,-4.6 -2.31,0 -14.87,0.25 -38.51,1.57 -23.38,1.13 -45.81,1.5 -66.89,1.5 -51.88,0 -89.88,-9.39 -113.99,-27.92 -24.26,-18.41 -36.21,-47.75 -36.21,-87.6 0,-31.72 5.89,-63.39 18.01,-95.32 12.32,-31.9 28.43,-58.09 48.67,-78.4 23.01,-23.68 55.06,-40.59 95.68,-51.04 40.85,-10.82 97.62,-15.82 170.73,-15.82 44.75,0 92.87,2.19 144.16,5.7 51.4,4.05 105.4,9.75 161.92,17.06l-42.05 154.43c-40.19,-5.41 -75.55,-9.28 -106.02,-12.09 -30.04,-2.45 -57.14,-3.69 -80.67,-3.69 -47.17,0 -79.94,2.63 -98.5,8.36 -18.7,5.99 -27.87,15.64 -27.87,29.3 0,8.81 2.99,14.95 9.17,18.75 6.35,3.39 17.09,5.04 33.35,5.04 6.51,0 21.52,-0.55 45.49,-2.01 23.56,-1.17 44.09,-1.9 61.48,-1.9 46.7,0 80.96,8.95 102.08,26.56 21.34,17.83 31.71,46.1 31.71,85.38 0,31.82 -5.44,62 -16.58,90.71 -11.11,28.65 -26.45,51.95 -46.29,70.51 -24.63,22.84 -56.08,39.28 -95.21,49.14 -39.2,9.94 -92.8,15.02 -161.41,15.02 -47.79,0 -97.84,-1.61 -149.97,-5.67 -52.28,-3.32 -106.64,-8.95 -163.16,-16z"/>
  <path class="fil4" d="M14252.64 7907.67c-1104.57,-6.47 -2005.61,380.1 -2708.5,834.3 -121.14,78 -99,142.11 31.94,132.14 102.51,-8.04 20.34,52.76 -40.12,214.42 -263.05,705.88 -488.35,1430.9 152.17,2370.12 -51.15,451.16 -47.46,809.12 152.34,834.07 -18.74,203.72 -37.44,407.39 -56.08,611.07 -62.8,521.78 48.23,532.82 352.52,280.66 199.73,-165.28 301.85,-70.77 184.32,156.91 -182.49,354.35 -56.52,206.78 184.57,91.01 1063.47,-510.68 1873.98,-1058.4 3646,-1222.14 141.82,-8.33 282.99,-27.04 424.96,-25.03 804.3,12.46 -972.68,316.28 -1041.99,330.27 -350.07,72.19 -312.77,182.45 79.98,132.36 1110.23,-141.79 2184.26,-171.96 3245.76,-57.79 141.21,-10.16 157.32,-43.33 48.16,-98.97 -285.08,-6.25 -214.09,-85.82 -104.42,-190.13 51.55,-48.84 140.99,-93.16 136.24,-165.21 -5.34,-81.5 -99.85,-128.45 -160.31,-181.42 -204.67,-180.63 262.9,-211.61 496.42,-231.3 427.6,-46.99 854.9,-93.57 1282.17,-140.4 184.64,-46.95 182.27,-171.24 -55.9,-239.45 -575.89,-164.77 -659.07,-349.23 -424.82,-355.15 256.95,-6.57 260.93,89.22 160.06,-107.44 -57.07,-112.2 -147.23,-265.35 -80.01,-371.7 96.85,-152.39 325.81,-146.65 472.79,-247.81 34.92,-23.57 217.92,-89.91 184.42,-115.34 -81.47,-61.56 -408.93,36.9 -424.78,-66.13 -16.4,-108.91 169.88,-133.64 256.51,-198.34 201.77,-150.12 241.3,-95.03 -3.44,-206.71 -319.02,-145.48 -432.16,-445.17 -274.48,-453.32 387.44,-50.96 508.12,-163.49 340.06,-280.47 281.06,-195.79 206.13,-256.29 79.9,-297.35 -77.42,11.1 -160.42,64.92 -232.36,33.28 -202.29,-88.85 -145.7,-356.57 -8.07,-635.88 -93.46,57.73 -311.53,280.77 -280.4,173.47 49.32,-170.29 -8.81,-223.15 -104.27,-90.94 -150.92,208.9 -329.21,190.53 -328.48,-123.88 24.15,-176.06 -37.56,-209.16 -184.28,-99.19 -13.4,-258.63 172.04,-121.85 354.46,-182.35 310.9,-103.17 239.33,-265.67 -47.93,-214.89 -293.85,52.5 -257.46,-171.89 -448.83,-123.71 -480.6,182.53 -1602.09,268.93 -3108.69,164.92 18.78,63.5 37.48,126.77 56.12,190.12 -476.85,-89.69 -915.15,-69.78 -1306.28,82.53 -315.26,121.55 -600.84,92.65 -897.43,90.79z"/>
  <path class="fil5" d="M14252.64 7907.67c-1104.57,-6.47 -2005.61,380.1 -2708.5,834.3 -121.14,78 -99,142.11 31.94,132.14 102.58,-8.04 20.34,52.76 -40.12,214.42 -263.05,705.88 -488.35,1430.9 152.17,2370.12 -51.15,451.16 -47.46,809.12 152.34,834.07 -18.74,203.72 -37.3,407.39 -56.08,611.07 -62.8,521.78 48.23,532.82 352.52,280.66 199.73,-165.28 301.85,-70.77 184.32,156.91 -182.49,354.35 -56.52,206.78 184.57,91.01 1063.47,-510.68 1873.98,-1058.4 3646,-1222.14 141.82,-8.33 282.99,-27.04 424.96,-25.03 804.3,12.46 -972.68,316.28 -1041.99,330.27 -350.07,72.19 -312.77,182.45 80.23,132.36 1109.98,-141.79 2184.01,-171.96 3245.51,-57.79 141.21,-10.16 157.32,-43.33 48.16,-98.97 -285.08,-6.25 -214.09,-85.82 -104.42,-190.13 51.55,-48.84 140.99,-93.16 136.24,-165.21 -5.34,-81.5 -99.85,-128.45 -160.31,-181.42 -204.67,-180.63 262.9,-211.61 496.42,-231.3 427.6,-46.99 854.9,-93.57 1282.17,-140.4 184.64,-46.95 182.27,-171.24 -55.9,-239.45 -575.89,-164.77 -659.07,-349.23 -424.82,-355.15 257.09,-6.57 260.93,89.22 160.06,-107.44 -57.07,-112.2 -147.23,-265.35 -80.01,-371.7 96.85,-152.39 325.81,-146.65 472.79,-247.81 34.92,-23.57 218.25,-89.91 184.42,-115.34 -81.47,-61.56 -408.93,36.9 -424.78,-66.13 -16.4,-108.91 169.88,-133.64 256.51,-198.34 201.77,-150.12 241.3,-95.03 -3.44,-206.71 -319.02,-145.48 -432.16,-445.17 -274.48,-453.32 387.63,-50.96 508.12,-163.49 340.06,-280.47 281.06,-195.79 206.13,-256.29 79.9,-297.35 -77.42,11.1 -160.28,64.92 -232.36,33.28 -202.29,-88.85 -145.7,-356.57 -8.07,-635.88 -93.46,57.73 -311.53,280.77 -280.4,173.47 49.32,-170.29 -8.81,-223.15 -104.27,-90.94 -150.92,208.9 -329.21,190.53 -328.48,-123.88 24.15,-176.06 -37.56,-209.16 -184.28,-99.19 -13.4,-258.63 172.04,-121.85 354.46,-182.35 310.9,-103.17 239.33,-265.67 -47.86,-214.89 -293.92,52.5 -257.53,-171.89 -448.9,-123.71 -480.6,182.53 -1602.09,268.93 -3108.62,164.92 18.71,63.5 37.41,126.77 56.05,190.12 -476.85,-89.69 -915.15,-69.78 -1306.28,82.53 -315.26,121.55 -600.84,92.65 -897.43,90.79z"/>
  <path class="fil6" d="M13163.63 9499.28c-74.78,0 -138.68,15.13 -191.51,44.79 -52.39,29.05 -99.12,77.31 -140.15,143.18 -29.3,50.27 -54.76,109.97 -75.51,179.13 -20.79,69.45 -31.24,127.98 -31.24,174.89 0,64.74 22.8,115.7 68.39,153.62 45.74,37.12 107.6,56.08 187.13,56.08 130.1,0 235.65,-51.04 317.3,-153.4 82.53,-102.74 122.83,-233.35 122.83,-391.98 0,-63.61 -22.91,-113.88 -69.75,-150.81 -46.65,-37.08 -109.31,-55.5 -187.49,-55.5zm1530.82 -770.36l-567.27 2155.01 -1001.25 0c25.28,-76.21 49.47,-154.87 72.81,-235.98 22.98,-80.7 44.83,-165.5 65.51,-252.63 -109.93,194.62 -236.09,335.82 -379.26,422.66 -143.07,87.69 -319.2,131.2 -529.42,131.2 -219.21,0 -384.41,-53.74 -496.57,-160.97 -112.13,-107.74 -168.46,-267.03 -168.46,-478.27 0,-152.35 21.26,-318.94 63.86,-500.81 42.2,-182.12 98.28,-345.98 168.68,-492.59 113.29,-232.58 242.73,-398.74 388.76,-497.74 145.77,-99.05 332.6,-148.37 561.71,-148.37 217.56,0 380.25,36.5 488.13,109.97 107.6,73.47 178.07,194.51 211.32,364.87 8.44,-37.31 23.45,-102.01 45.12,-194.18 21.44,-92.18 38.65,-166.09 52.24,-222.17l1024.09 0z"/>
  <path class="fil6" d="M14528.29 10883.93l142.16 -541 865.75 -679.1c13.4,-11.58 47.89,-35.8 102.84,-73.32 56.15,-37.6 98.09,-66.02 126.96,-84.76l-912.66 0 206.38 -776.83 2221.93 0 -174.89 666.02 -864.5 640.26c-40.59,28.57 -81.15,56.59 -122.21,83.48 -40.48,26.89 -80.92,52.47 -121.48,77.24l928.41 0 -177.96 688.01 -2220.73 0z"/>
  <path class="fil6" d="M18660.67 9499.28c-75,0 -138.54,15.13 -191.55,44.79 -52.31,29.05 -98.93,77.31 -140.07,143.18 -29.37,50.27 -54.65,109.97 -75.44,179.13 -20.68,69.45 -31.64,127.98 -31.64,174.89 0,64.74 23.05,115.7 68.65,153.62 45.74,37.12 107.66,56.08 186.91,56.08 130.28,0 236.19,-51.04 317.59,-153.4 82.2,-102.74 122.83,-233.35 122.83,-391.98 0,-63.61 -23.09,-113.88 -69.86,-150.81 -46.72,-37.08 -109.09,-55.5 -187.42,-55.5zm1530.93 -770.36l-567.59 2155.01 -1001.11 0c25.28,-76.21 49.68,-154.87 72.7,-235.98 22.87,-80.7 44.79,-165.5 65.76,-252.63 -109.78,194.62 -236.49,335.82 -379.33,422.66 -143.04,87.69 -319.28,131.2 -529.46,131.2 -219.06,0 -384.59,-53.74 -496.57,-160.97 -111.79,-107.74 -168.28,-267.03 -168.28,-478.27 0,-152.35 21.34,-318.94 63.65,-500.81 42.23,-182.12 98.24,-345.98 168.6,-492.59 113.51,-232.58 242.99,-398.74 388.65,-497.74 145.85,-99.05 332.97,-148.37 562.04,-148.37 217.24,0 380.18,36.5 488.39,109.97 107.41,73.47 177.6,194.51 210.99,364.87 8.55,-37.31 23.85,-102.01 44.93,-194.18 21.56,-92.18 39.13,-166.09 52.5,-222.17l1024.13 0z"/>
  <g>
   <path class="fil6" d="M12812.7 9423.83l-50.96 -91.18 -0.16 0.09 5.84 -3.21 5.88 -3.11 5.99 -3.02 6.04 -2.89 6.09 -2.79 6.18 -2.7 6.25 -2.59 6.29 -2.47 6.32 -2.36 6.45 -2.28 6.47 -2.15 6.52 -2.06 6.62 -1.96 6.67 -1.85 6.69 -1.73 6.77 -1.64 6.85 -1.54 6.87 -1.42 6.93 -1.34 7.02 -1.23 7.07 -1.13 7.09 -1.02 7.16 -0.92 7.2 -0.83 7.3 -0.73 7.35 -0.63 7.37 -0.53 7.43 -0.43 7.48 -0.34 7.58 -0.24 7.62 -0.14 7.65 -0.05 0 104.46 -6.37 0.03 -6.26 0.12 -6.18 0.2 -6.14 0.28 -6.05 0.35 -5.97 0.43 -5.85 0.49 -5.78 0.59 -5.74 0.65 -5.66 0.74 -5.57 0.8 -5.47 0.87 -5.4 0.95 -5.35 1.02 -5.27 1.1 -5.17 1.16 -5.11 1.24 -5.05 1.31 -4.95 1.37 -4.88 1.44 -4.84 1.52 -4.77 1.59 -4.65 1.64 -4.64 1.74 -4.57 1.79 -4.45 1.85 -4.42 1.92 -4.37 2.01 -4.3 2.07 -4.21 2.12 -4.2 2.21 -4.12 2.27 -0.16 0.09zm0.16 -0.09c-25.12,14.16 -56.98,5.26 -71.14,-19.86 -14.16,-25.12 -5.26,-56.98 19.86,-71.14l51.28 91zm-120.93 124.09l-90.3 -52.52 0.85 -1.41 4.2 -6.63 4.26 -6.56 4.3 -6.45 4.33 -6.34 4.38 -6.23 4.44 -6.16 4.5 -6.07 4.52 -5.93 4.56 -5.83 4.65 -5.77 4.68 -5.64 4.74 -5.55 4.78 -5.43 4.81 -5.31 4.88 -5.24 4.96 -5.14 5.01 -5.04 5.02 -4.88 5.07 -4.79 5.16 -4.71 5.23 -4.61 5.25 -4.47 5.28 -4.34 5.38 -4.27 5.44 -4.15 5.46 -4.01 5.52 -3.91 5.57 -3.79 5.64 -3.68 5.69 -3.56 5.76 -3.45 5.79 -3.31 50.96 91.18 -4.01 2.29 -3.96 2.37 -3.99 2.5 -3.96 2.58 -3.95 2.69 -3.96 2.79 -3.94 2.91 -3.9 2.97 -3.88 3.09 -3.92 3.22 -3.89 3.31 -3.85 3.39 -3.84 3.51 -3.87 3.65 -3.86 3.76 -3.81 3.82 -3.78 3.94 -3.8 4.06 -3.79 4.19 -3.78 4.29 -3.74 4.39 -3.74 4.5 -3.69 4.59 -3.72 4.75 -3.7 4.85 -3.66 4.93 -3.64 5.06 -3.64 5.19 -3.63 5.3 -3.6 5.39 -3.56 5.5 -3.56 5.63 0.85 -1.41zm-0.85 1.41c-15.28,24.46 -47.51,31.91 -71.97,16.63 -24.46,-15.28 -31.91,-47.51 -16.63,-71.97l88.6 55.34zm-69.79 166.63l-100.12 -29.76 0.05 -0.18 2.08 -6.82 2.09 -6.69 2.11 -6.67 2.16 -6.65 2.19 -6.58 2.21 -6.52 2.24 -6.44 2.26 -6.42 2.32 -6.4 2.32 -6.26 2.35 -6.25 2.38 -6.19 2.41 -6.14 2.44 -6.08 2.47 -6.03 2.51 -6 2.5 -5.89 2.58 -5.91 2.59 -5.84 2.6 -5.72 2.63 -5.71 2.68 -5.67 2.71 -5.63 2.73 -5.56 2.74 -5.46 2.79 -5.46 2.82 -5.41 2.83 -5.33 2.87 -5.3 2.91 -5.26 2.94 -5.21 2.95 -5.12 90.3 52.52 -2.53 4.38 -2.48 4.39 -2.47 4.46 -2.45 4.52 -2.45 4.61 -2.42 4.63 -2.39 4.7 -2.4 4.8 -2.37 4.8 -2.33 4.85 -2.32 4.93 -2.31 4.99 -2.3 5.08 -2.27 5.08 -2.22 5.13 -2.24 5.25 -2.21 5.26 -2.17 5.35 -2.18 5.4 -2.13 5.46 -2.14 5.51 -2.09 5.57 -2.1 5.68 -2.04 5.64 -2.04 5.76 -2.02 5.84 -1.99 5.86 -1.97 5.94 -1.94 5.97 -1.93 6.07 -1.91 6.15 -1.88 6.16 0.05 -0.18zm-0.05 0.18c-8.31,27.61 -37.46,43.26 -65.07,34.95 -27.61,-8.31 -43.26,-37.46 -34.95,-65.07l100.02 30.12zm-29.16 159.46l-104.46 0 0 0 0.04 -5.18 0.11 -5.17 0.18 -5.2 0.25 -5.38 0.33 -5.31 0.38 -5.36 0.47 -5.47 0.52 -5.45 0.59 -5.51 0.66 -5.62 0.73 -5.66 0.78 -5.61 0.84 -5.71 0.93 -5.82 0.97 -5.82 1.04 -5.89 1.09 -5.87 1.15 -5.99 1.24 -6.07 1.28 -6.1 1.34 -6.14 1.4 -6.16 1.46 -6.26 1.52 -6.3 1.58 -6.37 1.65 -6.42 1.69 -6.45 1.74 -6.48 1.81 -6.58 1.88 -6.65 1.92 -6.65 1.98 -6.75 100.12 29.76 -1.82 6.17 -1.76 6.13 -1.7 6.01 -1.63 5.96 -1.6 5.92 -1.53 5.83 -1.47 5.74 -1.4 5.67 -1.36 5.6 -1.28 5.5 -1.24 5.5 -1.18 5.36 -1.12 5.3 -1.04 5.17 -0.99 5.15 -0.95 5.11 -0.88 4.97 -0.83 4.92 -0.75 4.78 -0.7 4.75 -0.66 4.71 -0.59 4.54 -0.52 4.44 -0.47 4.43 -0.42 4.33 -0.35 4.19 -0.3 4.16 -0.25 4.07 -0.19 3.88 -0.12 3.9 -0.09 3.79 -0.02 3.66 0 0zm0 0c0,28.84 -23.39,52.23 -52.23,52.23 -28.84,0 -52.23,-23.39 -52.23,-52.23l104.46 0zm49.86 113.28l-66.24 80.76 -0.28 -0.23 -5.25 -4.48 -5.09 -4.58 -4.97 -4.71 -4.87 -4.87 -4.66 -4.94 -4.53 -5.05 -4.43 -5.25 -4.21 -5.28 -4.05 -5.39 -3.94 -5.57 -3.74 -5.64 -3.56 -5.74 -3.4 -5.84 -3.23 -5.95 -3.08 -6.08 -2.86 -6.12 -2.71 -6.25 -2.52 -6.33 -2.34 -6.37 -2.17 -6.52 -1.98 -6.56 -1.79 -6.59 -1.63 -6.7 -1.45 -6.81 -1.26 -6.82 -1.09 -6.85 -0.92 -6.94 -0.76 -7.05 -0.57 -7.05 -0.41 -7.11 -0.24 -7.16 -0.09 -7.21 104.46 0 0.05 4.85 0.16 4.76 0.27 4.63 0.37 4.53 0.46 4.37 0.58 4.3 0.67 4.25 0.76 4.1 0.85 3.97 0.95 3.9 1.05 3.87 1.12 3.72 1.21 3.62 1.32 3.61 1.38 3.49 1.49 3.41 1.58 3.38 1.64 3.26 1.77 3.25 1.86 3.2 1.96 3.14 2.04 3.08 2.12 3.01 2.29 3.03 2.37 3 2.43 2.87 2.61 2.91 2.72 2.88 2.79 2.79 2.97 2.81 3.09 2.78 3.21 2.74 -0.28 -0.23zm0.28 0.23c22.17,18.44 25.19,51.38 6.75,73.55 -18.44,22.17 -51.38,25.19 -73.55,6.75l66.8 -80.3zm153.4 44.11l0 104.46 0 0 -8.19 -0.07 -8.11 -0.18 -8.07 -0.31 -7.95 -0.44 -7.9 -0.56 -7.8 -0.7 -7.67 -0.82 -7.66 -0.95 -7.54 -1.08 -7.47 -1.21 -7.4 -1.36 -7.26 -1.47 -7.22 -1.61 -7.19 -1.76 -7.06 -1.9 -6.93 -2.01 -6.85 -2.16 -6.81 -2.3 -6.71 -2.46 -6.59 -2.57 -6.54 -2.73 -6.44 -2.89 -6.32 -3 -6.21 -3.15 -6.16 -3.31 -6.05 -3.46 -5.91 -3.59 -5.75 -3.68 -5.74 -3.88 -5.61 -4.04 -5.43 -4.1 -5.38 -4.29 66.24 -80.76 3.2 2.55 3.35 2.54 3.35 2.4 3.44 2.32 3.61 2.32 3.65 2.21 3.71 2.12 3.8 2.05 3.95 1.99 4.04 1.94 4.12 1.83 4.22 1.77 4.37 1.71 4.45 1.62 4.55 1.54 4.71 1.48 4.83 1.41 4.9 1.32 4.97 1.22 5.16 1.15 5.3 1.07 5.38 0.98 5.51 0.89 5.64 0.82 5.72 0.71 5.91 0.62 6 0.54 6.1 0.44 6.25 0.34 6.35 0.25 6.51 0.14 6.63 0.05 0 0zm0 0c28.84,0 52.23,23.39 52.23,52.23 0,28.84 -23.39,52.23 -52.23,52.23l0 -104.46zm276.98 -134.19l81.52 65.3 0.08 -0.1 -8.55 10.46 -8.72 10.15 -8.92 9.87 -9.12 9.57 -9.29 9.23 -9.47 8.94 -9.67 8.63 -9.84 8.3 -10.06 8 -10.22 7.66 -10.38 7.33 -10.58 7.01 -10.75 6.67 -10.94 6.35 -11.09 5.99 -11.26 5.66 -11.44 5.32 -11.59 4.97 -11.72 4.62 -11.88 4.28 -12.06 3.94 -12.17 3.58 -12.32 3.24 -12.46 2.89 -12.59 2.54 -12.7 2.2 -12.84 1.86 -12.96 1.51 -13.07 1.17 -13.19 0.84 -13.31 0.5 -13.42 0.17 0 -104.46 10.82 -0.13 10.65 -0.4 10.49 -0.66 10.31 -0.93 10.16 -1.19 9.98 -1.44 9.84 -1.7 9.69 -1.96 9.52 -2.21 9.38 -2.46 9.23 -2.72 9.08 -2.96 8.96 -3.24 8.86 -3.48 8.69 -3.73 8.56 -3.98 8.46 -4.26 8.35 -4.51 8.22 -4.77 8.11 -5.03 8 -5.31 7.94 -5.59 7.8 -5.84 7.68 -6.12 7.6 -6.42 7.51 -6.69 7.41 -7 7.33 -7.29 7.2 -7.55 7.12 -7.87 7.02 -8.17 6.93 -8.48 0.08 -0.1zm-0.08 0.1c17.97,-22.55 50.84,-26.26 73.39,-8.29 22.55,17.97 26.26,50.84 8.29,73.39l-81.68 -65.1zm111.07 -358.99l104.46 0 0 0 -0.13 15.61 -0.37 15.5 -0.64 15.34 -0.88 15.18 -1.14 15.06 -1.4 14.91 -1.65 14.74 -1.91 14.6 -2.17 14.48 -2.44 14.32 -2.69 14.14 -2.96 14.01 -3.23 13.87 -3.49 13.71 -3.75 13.56 -4.03 13.4 -4.29 13.24 -4.56 13.09 -4.83 12.92 -5.1 12.76 -5.36 12.59 -5.65 12.45 -5.91 12.26 -6.19 12.09 -6.46 11.93 -6.72 11.74 -6.99 11.56 -7.26 11.38 -7.53 11.22 -7.81 11.04 -8.06 10.84 -8.33 10.65 -81.52 -65.3 6.79 -8.69 6.58 -8.84 6.35 -8.98 6.13 -9.12 5.92 -9.3 5.71 -9.44 5.5 -9.6 5.28 -9.73 5.05 -9.91 4.87 -10.08 4.63 -10.21 4.44 -10.41 4.22 -10.56 4.01 -10.74 3.8 -10.89 3.59 -11.08 3.37 -11.24 3.17 -11.42 2.95 -11.59 2.73 -11.77 2.52 -11.95 2.31 -12.14 2.1 -12.3 1.87 -12.46 1.65 -12.68 1.45 -12.86 1.22 -13.03 1 -13.2 0.78 -13.4 0.56 -13.58 0.33 -13.74 0.11 -13.95 0 0zm0 0c0,-28.84 23.39,-52.23 52.23,-52.23 28.84,0 52.23,23.39 52.23,52.23l-104.46 0zm-50.22 -110.01l65.2 -81.6 -0.44 -0.35 5.4 4.35 5.26 4.45 5.16 4.64 4.99 4.74 4.83 4.87 4.7 5.03 4.49 5.11 4.31 5.19 4.22 5.39 4.02 5.5 3.82 5.57 3.65 5.69 3.5 5.83 3.31 5.94 3.11 5.99 2.94 6.12 2.76 6.21 2.55 6.27 2.38 6.36 2.21 6.47 2 6.52 1.82 6.57 1.65 6.7 1.46 6.71 1.28 6.78 1.09 6.82 0.93 6.88 0.76 6.99 0.58 6.99 0.41 7.04 0.24 7.1 0.09 7.14 -104.46 0 -0.05 -4.76 -0.16 -4.64 -0.27 -4.54 -0.36 -4.43 -0.46 -4.27 -0.57 -4.22 -0.67 -4.12 -0.76 -4.02 -0.84 -3.91 -0.93 -3.78 -1.04 -3.73 -1.12 -3.64 -1.19 -3.51 -1.3 -3.48 -1.39 -3.39 -1.46 -3.31 -1.56 -3.24 -1.65 -3.19 -1.73 -3.1 -1.82 -3.03 -1.95 -3.03 -2.04 -2.97 -2.12 -2.9 -2.2 -2.83 -2.39 -2.87 -2.47 -2.81 -2.54 -2.71 -2.69 -2.71 -2.81 -2.68 -2.92 -2.62 -3.1 -2.63 -3.22 -2.59 -0.44 -0.35zm0.44 0.35c-22.72,-17.76 -26.75,-50.59 -8.99,-73.31 17.76,-22.72 50.59,-26.75 73.31,-8.99l-64.32 82.3zm-155.19 -44.52l0 -104.46 0 0 8.03 0.06 7.99 0.18 7.93 0.3 7.81 0.42 7.75 0.54 7.71 0.67 7.64 0.79 7.56 0.93 7.47 1.05 7.42 1.17 7.35 1.32 7.24 1.43 7.2 1.57 7.13 1.71 7.02 1.84 6.98 1.97 6.93 2.14 6.77 2.25 6.73 2.39 6.67 2.55 6.55 2.68 6.49 2.83 6.41 2.97 6.29 3.12 6.2 3.25 6.12 3.42 6 3.53 5.96 3.72 5.81 3.85 5.69 3.98 5.61 4.13 5.49 4.27 -65.2 81.6 -3.35 -2.61 -3.43 -2.53 -3.53 -2.46 -3.59 -2.37 -3.64 -2.28 -3.78 -2.23 -3.84 -2.14 -3.96 -2.07 -4.03 -2 -4.11 -1.91 -4.23 -1.85 -4.33 -1.76 -4.41 -1.69 -4.53 -1.61 -4.67 -1.55 -4.69 -1.44 -4.82 -1.37 -4.98 -1.3 -5.05 -1.21 -5.16 -1.13 -5.3 -1.05 -5.37 -0.96 -5.48 -0.87 -5.63 -0.79 -5.72 -0.69 -5.8 -0.61 -5.93 -0.51 -6.07 -0.42 -6.19 -0.34 -6.25 -0.24 -6.37 -0.14 -6.51 -0.04 0 0zm0 0c-28.84,0 -52.23,-23.39 -52.23,-52.23 0,-28.84 23.39,-52.23 52.23,-52.23l0 104.46zm912.76 1319.07l567.67 -2155.04 101 26.6 -567.67 2155.04 -50.5 38.93 -50.5 -65.53zm101 26.6c-7.34,27.89 -35.91,44.54 -63.8,37.2 -27.89,-7.34 -44.54,-35.91 -37.2,-63.8l101 26.6zm-1051.64 -65.53l1001.14 0 0 104.46 -1001.14 0 -49.51 -68.84 49.51 -35.62zm0 104.46c-28.84,0 -52.23,-23.39 -52.23,-52.23 0,-28.84 23.39,-52.23 52.23,-52.23l0 104.46zm22.38 -302.48l100.42 28.7 0.06 -0.19 -2.17 7.67 -2.17 7.67 -2.2 7.67 -2.18 7.62 -2.21 7.64 -2.2 7.58 -2.21 7.58 -2.24 7.62 -2.23 7.55 -2.23 7.54 -2.26 7.53 -2.25 7.54 -2.28 7.51 -2.26 7.43 -2.28 7.49 -2.3 7.47 -2.28 7.43 -2.31 7.45 -2.32 7.42 -2.32 7.37 -2.32 7.38 -2.34 7.38 -2.35 7.37 -2.35 7.31 -2.35 7.31 -2.37 7.32 -2.38 7.3 -2.38 7.26 -2.38 7.25 -2.4 7.25 -2.41 7.25 -2.42 7.19 -99.02 -33.22 2.36 -7.07 2.35 -7.05 2.34 -7.07 2.34 -7.11 2.34 -7.14 2.32 -7.12 2.31 -7.12 2.31 -7.19 2.31 -7.19 2.29 -7.19 2.28 -7.18 2.28 -7.24 2.28 -7.27 2.26 -7.24 2.25 -7.25 2.26 -7.31 2.24 -7.29 2.22 -7.31 2.24 -7.39 2.22 -7.33 2.21 -7.36 2.2 -7.37 2.19 -7.4 2.21 -7.43 2.16 -7.38 2.17 -7.46 2.18 -7.48 2.15 -7.46 2.16 -7.5 2.14 -7.49 2.13 -7.51 2.13 -7.55 0.06 -0.19zm-0.06 0.19c7.82,-27.76 36.67,-43.93 64.43,-36.11 27.76,7.82 43.93,36.67 36.11,64.43l-100.54 -28.32zm161.86 -212.81l-90.92 -51.4 96.21 38.02 -1.99 8.2 -2 8.19 -2 8.17 -2.02 8.15 -2.01 8.15 -2.02 8.13 -2.02 8.13 -2.04 8.1 -2.03 8.09 -2.04 8.07 -2.05 8.06 -2.05 8.05 -2.06 8.03 -2.07 8.04 -2.07 8 -2.07 7.95 -2.08 7.99 -2.1 7.94 -2.08 7.92 -2.12 7.95 -2.1 7.85 -2.11 7.91 -2.14 7.87 -2.12 7.8 -2.13 7.81 -2.14 7.82 -2.16 7.79 -2.16 7.75 -2.15 7.7 -2.17 7.73 -2.19 7.72 -2.18 7.64 -100.42 -28.7 2.14 -7.52 2.13 -7.5 2.11 -7.53 2.13 -7.62 2.12 -7.61 2.1 -7.61 2.1 -7.62 2.09 -7.67 2.1 -7.74 2.08 -7.69 2.07 -7.71 2.08 -7.79 2.06 -7.75 2.06 -7.82 2.06 -7.82 2.04 -7.81 2.05 -7.89 2.05 -7.88 2.03 -7.88 2.02 -7.91 2.03 -7.93 2.01 -7.96 2.02 -7.97 2.01 -7.99 2 -8 2 -8.01 2 -8.03 1.99 -8.05 1.98 -8.07 1.98 -8.07 1.98 -8.09 1.97 -8.1 96.21 38.02zm-96.21 -38.02c6.8,-28.02 35.05,-45.23 63.07,-38.43 28.02,6.8 45.23,35.05 38.43,63.07l-101.5 -24.64zm-301.73 479.34l-54.66 -89 0.28 -0.17 12.47 -7.74 12.4 -8.04 12.33 -8.34 12.25 -8.66 12.17 -8.96 12.1 -9.27 12.03 -9.59 11.95 -9.89 11.86 -10.21 11.81 -10.53 11.71 -10.83 11.65 -11.16 11.59 -11.49 11.49 -11.77 11.41 -12.1 11.35 -12.45 11.27 -12.73 11.18 -13.07 11.13 -13.39 11.03 -13.7 10.96 -14.03 10.87 -14.35 10.8 -14.67 10.73 -15.01 10.64 -15.31 10.56 -15.64 10.48 -15.96 10.4 -16.29 10.32 -16.61 10.23 -16.93 10.15 -17.25 10.08 -17.58 90.92 51.4 -10.66 18.62 -10.77 18.31 -10.89 18.01 -11 17.69 -11.1 17.39 -11.22 17.08 -11.32 16.78 -11.44 16.47 -11.55 16.15 -11.66 15.85 -11.79 15.55 -11.9 15.23 -12.01 14.92 -12.13 14.61 -12.24 14.29 -12.37 13.99 -12.47 13.65 -12.61 13.38 -12.73 13.05 -12.83 12.71 -12.95 12.42 -13.09 12.09 -13.19 11.77 -13.34 11.47 -13.45 11.13 -13.55 10.81 -13.7 10.51 -13.81 10.16 -13.93 9.84 -14.05 9.52 -14.16 9.18 -14.31 8.86 0.28 -0.17zm-0.28 0.17c-24.67,14.93 -56.79,7.05 -71.72,-17.62 -14.93,-24.67 -7.05,-56.79 17.62,-71.72l54.1 89.34zm-556.32 138.76l0 -104.46 0 0 18.93 -0.12 18.74 -0.37 18.48 -0.6 18.29 -0.87 18.09 -1.1 17.85 -1.34 17.64 -1.59 17.45 -1.83 17.21 -2.07 17.02 -2.31 16.79 -2.56 16.58 -2.79 16.37 -3.04 16.19 -3.28 15.95 -3.51 15.75 -3.75 15.53 -3.99 15.32 -4.23 15.14 -4.47 14.94 -4.71 14.72 -4.93 14.51 -5.18 14.33 -5.42 14.13 -5.66 13.92 -5.88 13.73 -6.13 13.53 -6.36 13.34 -6.6 13.16 -6.84 12.95 -7.07 12.77 -7.32 12.59 -7.55 54.66 89 -14.41 8.65 -14.63 8.38 -14.83 8.09 -15 7.8 -15.22 7.54 -15.41 7.24 -15.61 6.97 -15.8 6.68 -15.99 6.4 -16.19 6.12 -16.37 5.84 -16.58 5.57 -16.74 5.27 -16.94 5.01 -17.14 4.73 -17.33 4.45 -17.51 4.17 -17.69 3.89 -17.87 3.62 -18.07 3.36 -18.26 3.07 -18.43 2.8 -18.62 2.53 -18.81 2.27 -18.99 1.99 -19.18 1.73 -19.37 1.46 -19.55 1.18 -19.73 0.93 -19.94 0.66 -20.1 0.39 -20.29 0.14 0 0zm0 0c-28.84,0 -52.23,-23.39 -52.23,-52.23 0,-28.84 23.39,-52.23 52.23,-52.23l0 104.46zm-532.64 -175.42l72.34 -75.34 -0.08 -0.08 9.51 8.82 9.81 8.56 10.09 8.28 10.36 8 10.67 7.73 10.95 7.46 11.27 7.19 11.58 6.94 11.88 6.67 12.17 6.38 12.52 6.12 12.84 5.87 13.16 5.59 13.47 5.32 13.81 5.05 14.14 4.77 14.46 4.5 14.8 4.21 15.15 3.94 15.48 3.65 15.83 3.38 16.15 3.1 16.49 2.8 16.84 2.51 17.17 2.22 17.53 1.94 17.86 1.64 18.19 1.34 18.53 1.05 18.89 0.75 19.22 0.45 19.56 0.15 0 104.46 -21.18 -0.17 -20.88 -0.49 -20.61 -0.81 -20.31 -1.15 -20.03 -1.48 -19.74 -1.82 -19.45 -2.14 -19.17 -2.48 -18.88 -2.83 -18.59 -3.16 -18.31 -3.5 -18.01 -3.84 -17.72 -4.19 -17.45 -4.54 -17.16 -4.89 -16.86 -5.24 -16.56 -5.59 -16.29 -5.95 -15.97 -6.3 -15.68 -6.67 -15.36 -7.01 -15.08 -7.38 -14.79 -7.76 -14.46 -8.11 -14.12 -8.46 -13.83 -8.83 -13.51 -9.2 -13.17 -9.55 -12.86 -9.92 -12.51 -10.28 -12.17 -10.62 -11.85 -10.98 -0.08 -0.08zm0.08 0.08c-20.84,-19.93 -21.59,-53 -1.66,-73.84 19.93,-20.84 53,-21.59 73.84,-1.66l-72.18 75.5zm-184.7 -516.02l104.46 0 0 0 0.16 18.76 0.46 18.44 0.79 18.08 1.1 17.77 1.41 17.46 1.71 17.1 2.02 16.77 2.33 16.44 2.63 16.11 2.93 15.81 3.22 15.46 3.52 15.12 3.81 14.8 4.11 14.48 4.4 14.16 4.68 13.83 4.97 13.51 5.25 13.2 5.53 12.88 5.82 12.56 6.1 12.29 6.36 11.93 6.66 11.66 6.93 11.36 7.2 11.06 7.5 10.77 7.77 10.5 8.06 10.22 8.33 9.92 8.62 9.65 8.91 9.38 9.21 9.12 -72.34 75.34 -11.47 -11.36 -11.13 -11.7 -10.76 -12.05 -10.39 -12.38 -10.02 -12.7 -9.65 -13.02 -9.28 -13.35 -8.92 -13.68 -8.53 -13.98 -8.16 -14.3 -7.78 -14.61 -7.4 -14.89 -7.04 -15.2 -6.65 -15.5 -6.29 -15.78 -5.91 -16.09 -5.54 -16.37 -5.16 -16.64 -4.81 -16.94 -4.43 -17.22 -4.08 -17.5 -3.7 -17.78 -3.35 -18.03 -2.99 -18.33 -2.63 -18.6 -2.28 -18.89 -1.91 -19.16 -1.57 -19.42 -1.22 -19.69 -0.87 -20 -0.52 -20.26 -0.18 -20.52 0 0zm0 0c0,-28.84 23.39,-52.23 52.23,-52.23 28.84,0 52.23,23.39 52.23,52.23l-104.46 0zm65.21 -512.31l101.76 23.58 -0.01 0.02 -3.82 16.69 -3.71 16.62 -3.6 16.5 -3.46 16.41 -3.35 16.33 -3.23 16.24 -3.1 16.12 -2.99 16.05 -2.87 15.96 -2.74 15.86 -2.63 15.79 -2.5 15.68 -2.39 15.58 -2.26 15.49 -2.14 15.42 -2.02 15.31 -1.89 15.22 -1.78 15.15 -1.66 15.03 -1.53 14.95 -1.41 14.86 -1.28 14.77 -1.17 14.67 -1.04 14.58 -0.93 14.5 -0.79 14.41 -0.68 14.31 -0.56 14.21 -0.42 14.14 -0.31 14.05 -0.19 13.94 -0.05 13.87 -104.46 0 0.07 -14.77 0.19 -14.88 0.33 -14.93 0.46 -15.02 0.58 -15.11 0.72 -15.17 0.85 -15.25 0.97 -15.34 1.1 -15.4 1.23 -15.49 1.36 -15.57 1.49 -15.64 1.61 -15.73 1.74 -15.81 1.86 -15.87 1.99 -15.96 2.12 -16.05 2.24 -16.12 2.36 -16.21 2.49 -16.28 2.62 -16.36 2.73 -16.43 2.86 -16.54 2.99 -16.6 3.09 -16.69 3.24 -16.78 3.35 -16.84 3.47 -16.93 3.6 -17.03 3.72 -17.1 3.83 -17.16 3.96 -17.27 -0.01 0.02zm0.01 -0.02c6.52,-28.09 34.59,-45.58 62.68,-39.06 28.09,6.52 45.58,34.59 39.06,62.68l-101.74 -23.62zm172.65 -503.95l93.86 45.82 0.18 -0.37 -6.37 13.44 -6.29 13.54 -6.2 13.64 -6.14 13.76 -6.07 13.87 -5.97 13.94 -5.9 14.04 -5.81 14.16 -5.76 14.28 -5.66 14.36 -5.6 14.48 -5.5 14.57 -5.43 14.66 -5.35 14.79 -5.28 14.9 -5.19 14.99 -5.12 15.11 -5.04 15.21 -4.96 15.32 -4.89 15.42 -4.8 15.54 -4.73 15.65 -4.64 15.73 -4.56 15.86 -4.49 15.97 -4.41 16.08 -4.32 16.18 -4.25 16.31 -4.18 16.41 -4.09 16.53 -4.01 16.62 -3.93 16.74 -101.76 -23.58 4.07 -17.36 4.17 -17.24 4.25 -17.13 4.32 -17.03 4.41 -16.93 4.5 -16.82 4.59 -16.72 4.65 -16.59 4.76 -16.52 4.84 -16.41 4.93 -16.29 5 -16.18 5.09 -16.1 5.18 -15.98 5.26 -15.87 5.34 -15.77 5.43 -15.69 5.52 -15.56 5.59 -15.47 5.69 -15.38 5.78 -15.27 5.86 -15.16 5.94 -15.06 6.02 -14.96 6.11 -14.86 6.2 -14.78 6.29 -14.66 6.37 -14.55 6.44 -14.46 6.54 -14.36 6.63 -14.28 6.71 -14.16 0.18 -0.37zm-0.18 0.37c12.44,-26.01 43.64,-37.01 69.65,-24.57 26.01,12.44 37.01,43.64 24.57,69.65l-94.22 -45.08zm406.44 -518.13l58.86 86.3 -0.19 0.12 -12.62 8.75 -12.59 9.16 -12.52 9.53 -12.43 9.91 -12.39 10.32 -12.34 10.72 -12.26 11.11 -12.2 11.5 -12.13 11.9 -12.07 12.3 -12.01 12.71 -11.94 13.1 -11.87 13.5 -11.81 13.9 -11.74 14.3 -11.67 14.7 -11.58 15.11 -11.54 15.5 -11.44 15.9 -11.39 16.33 -11.29 16.69 -11.23 17.12 -11.16 17.52 -11.07 17.9 -11 18.31 -10.93 18.73 -10.84 19.1 -10.76 19.5 -10.68 19.92 -10.61 20.31 -10.51 20.7 -10.45 21.11 -93.86 -45.82 10.93 -22.09 11.03 -21.72 11.15 -21.35 11.24 -20.96 11.36 -20.6 11.48 -20.22 11.57 -19.81 11.68 -19.47 11.81 -19.08 11.9 -18.68 12.01 -18.32 12.15 -17.95 12.25 -17.55 12.36 -17.18 12.48 -16.8 12.6 -16.41 12.73 -16.04 12.84 -15.64 12.95 -15.26 13.09 -14.88 13.2 -14.48 13.33 -14.09 13.45 -13.72 13.59 -13.32 13.7 -12.92 13.84 -12.53 13.96 -12.14 14.09 -11.74 14.23 -11.35 14.36 -10.93 14.47 -10.52 14.62 -10.13 -0.19 0.12zm0.19 -0.12c23.89,-16.14 56.37,-9.86 72.51,14.03 16.14,23.89 9.86,56.37 -14.03,72.51l-58.48 -86.54zm590.92 -157.69l0 104.46 0 0 -20.63 0.13 -20.37 0.43 -20.1 0.69 -19.85 0.98 -19.59 1.25 -19.31 1.53 -19.05 1.8 -18.8 2.09 -18.55 2.35 -18.27 2.63 -18 2.9 -17.76 3.18 -17.49 3.44 -17.24 3.72 -16.98 3.98 -16.71 4.26 -16.47 4.52 -16.21 4.8 -15.95 5.05 -15.69 5.32 -15.45 5.6 -15.21 5.86 -14.95 6.12 -14.7 6.39 -14.46 6.65 -14.2 6.91 -13.97 7.18 -13.74 7.45 -13.5 7.72 -13.25 7.96 -13.01 8.24 -12.79 8.52 -58.86 -86.3 14.77 -9.82 15.03 -9.52 15.29 -9.2 15.52 -8.86 15.76 -8.55 16.01 -8.24 16.26 -7.91 16.5 -7.59 16.74 -7.27 16.99 -6.96 17.21 -6.62 17.45 -6.32 17.69 -6 17.93 -5.69 18.15 -5.36 18.39 -5.06 18.63 -4.74 18.84 -4.42 19.08 -4.12 19.31 -3.8 19.54 -3.5 19.78 -3.18 19.99 -2.87 20.21 -2.57 20.46 -2.27 20.69 -1.96 20.91 -1.65 21.13 -1.35 21.37 -1.06 21.6 -0.75 21.83 -0.45 22.05 -0.15 0 0zm0 0c28.84,0 52.23,23.39 52.23,52.23 0,28.84 -23.39,52.23 -52.23,52.23l0 -104.46zm517.74 119.13l-58.86 86.28 0.11 0.08 -9.03 -5.94 -9.34 -5.77 -9.68 -5.61 -10.04 -5.46 -10.37 -5.29 -10.69 -5.13 -11.04 -4.94 -11.42 -4.8 -11.72 -4.61 -12.07 -4.42 -12.45 -4.26 -12.78 -4.08 -13.14 -3.89 -13.47 -3.71 -13.83 -3.52 -14.17 -3.33 -14.53 -3.14 -14.88 -2.95 -15.22 -2.76 -15.55 -2.55 -15.91 -2.35 -16.27 -2.16 -16.6 -1.96 -16.93 -1.76 -17.3 -1.54 -17.63 -1.35 -17.98 -1.15 -18.3 -0.94 -18.65 -0.72 -19 -0.53 -19.33 -0.31 -19.67 -0.1 0 -104.46 20.79 0.12 20.49 0.33 20.18 0.55 19.89 0.78 19.6 1 19.28 1.23 18.97 1.45 18.68 1.68 18.41 1.9 18.1 2.14 17.77 2.36 17.51 2.59 17.21 2.83 16.92 3.06 16.6 3.29 16.31 3.52 16.03 3.77 15.73 4 15.45 4.25 15.14 4.49 14.86 4.74 14.55 4.98 14.27 5.24 13.98 5.49 13.66 5.74 13.38 6 13.09 6.27 12.75 6.51 12.46 6.78 12.18 7.05 11.86 7.33 11.53 7.58 0.11 0.08zm-0.11 -0.08c23.86,16.19 30.09,48.68 13.9,72.54 -16.19,23.86 -48.68,30.09 -72.54,13.9l58.64 -86.44zm130.91 396.39l101.88 23.02 -102.2 -1.49 -3.04 -14.94 -3.25 -14.62 -3.44 -14.31 -3.64 -14.02 -3.83 -13.72 -4.01 -13.38 -4.22 -13.12 -4.39 -12.77 -4.59 -12.48 -4.77 -12.2 -4.95 -11.87 -5.15 -11.6 -5.31 -11.27 -5.5 -10.98 -5.68 -10.71 -5.85 -10.4 -6.03 -10.11 -6.21 -9.84 -6.37 -9.53 -6.55 -9.25 -6.74 -9 -6.9 -8.7 -7.08 -8.44 -7.25 -8.17 -7.43 -7.9 -7.61 -7.65 -7.79 -7.39 -7.98 -7.13 -8.17 -6.89 -8.34 -6.64 -8.53 -6.38 -8.74 -6.15 58.86 -86.28 11.22 7.89 10.99 8.22 10.74 8.54 10.47 8.83 10.24 9.17 9.99 9.47 9.73 9.77 9.47 10.08 9.21 10.37 8.96 10.68 8.68 10.96 8.42 11.24 8.19 11.55 7.91 11.85 7.63 12.08 7.39 12.39 7.13 12.68 6.86 12.91 6.62 13.22 6.35 13.49 6.09 13.74 5.85 14.01 5.59 14.28 5.35 14.54 5.09 14.83 4.84 15.06 4.61 15.34 4.35 15.6 4.12 15.84 3.88 16.13 3.63 16.4 3.4 16.64 -102.2 -1.49zm102.2 1.49c5.53,28.31 -12.93,55.75 -41.24,61.28 -28.31,5.53 -55.75,-12.93 -61.28,-41.24l102.52 -20.04zm-56.87 -195.66l101.76 23.52 -0.02 0.09 -3.95 16.96 -3.82 16.33 -3.67 15.68 -3.52 15.02 -3.37 14.38 -3.23 13.75 -3.08 13.1 -2.91 12.44 -2.77 11.79 -2.61 11.14 -2.45 10.5 -2.29 9.83 -2.13 9.17 -1.97 8.52 -1.8 7.82 -1.62 7.15 -101.88 -23.02 1.68 -7.39 1.84 -8.02 1.99 -8.62 2.15 -9.27 2.31 -9.91 2.47 -10.54 2.61 -11.18 2.77 -11.83 2.93 -12.46 3.08 -13.1 3.21 -13.71 3.37 -14.38 3.52 -15.02 3.67 -15.64 3.8 -16.27 3.95 -16.92 -0.02 0.09zm0.02 -0.09c6.54,-28.08 34.63,-45.55 62.71,-39.01 28.08,6.54 45.55,34.63 39.01,62.71l-101.72 -23.7zm102.88 -262.62l0 104.46 50.79 -40.09 -2.55 10.71 -2.65 11.13 -2.73 11.54 -2.83 11.95 -2.91 12.37 -3.02 12.81 -3.1 13.22 -3.2 13.62 -3.28 14.08 -3.39 14.5 -3.47 14.9 -3.57 15.34 -3.67 15.78 -3.75 16.2 -3.86 16.64 -3.95 17.07 -101.76 -23.52 3.95 -17.11 3.86 -16.66 3.77 -16.24 3.67 -15.8 3.57 -15.38 3.49 -14.96 3.39 -14.52 3.3 -14.1 3.2 -13.7 3.12 -13.26 3.02 -12.85 2.93 -12.43 2.85 -12.03 2.75 -11.6 2.67 -11.19 2.57 -10.79 50.79 -40.09zm-50.79 40.09c6.7,-28.05 34.88,-45.35 62.93,-38.65 28.05,6.7 45.35,34.88 38.65,62.93l-101.58 -24.28zm1075.21 64.37l-1024.42 0 0 -104.46 1024.42 0 50.5 65.53 -50.5 38.93zm0 -104.46c28.84,0 52.23,23.39 52.23,52.23 0,28.84 -23.39,52.23 -52.23,52.23l0 -104.46z"/>
   <path id="_1" class="fil3" d="M12978.62 9333.64c-75.15,0 -138.64,14.87 -191.4,44.6 -52.43,29.31 -99.23,77.35 -140.44,143.33 -29.3,50.38 -54.62,109.93 -75.55,179.42 -20.57,69.19 -31.38,127.79 -31.38,174.52 0,64.81 23.16,115.56 68.97,153.66 45.23,37.09 107.19,56.19 186.8,56.19 130.03,0 235.98,-51.18 317.74,-153.77 81.95,-102.29 122.46,-232.98 122.46,-391.54 0,-63.86 -23.09,-114.27 -69.85,-150.81 -46.69,-37.3 -109.31,-55.6 -187.35,-55.6zm1530.93 -770.44l-567.67 2155.04 -1001.14 0c25.5,-75.99 49.72,-154.68 72.59,-235.9 23.09,-80.77 45.01,-165.68 66.13,-252.67 -110.08,194.73 -236.49,335.72 -379.81,422.52 -143,87.83 -318.98,131.2 -529.27,131.2 -218.95,0 -384.23,-53.53 -496.47,-160.86 -112.05,-107.6 -168.56,-267.11 -168.56,-478.27 0,-152.35 21.7,-318.95 63.86,-500.52 42.27,-182.42 98.53,-346.13 168.71,-492.85 113.48,-232.46 242.92,-398.95 388.76,-497.52 145.7,-99.37 332.72,-148.73 561.68,-148.73 217.49,0 380.36,36.79 488.31,110.04 107.6,73.4 177.96,194.73 211.17,364.68 8.37,-37.04 23.82,-101.89 45.27,-193.92 21.33,-92.28 38.58,-166.01 52.02,-222.24l1024.42 0z"/>
  </g>
  <g>
   <path class="fil6" d="M14610.44 10190.63l-142.12 540.88 -101.02 -26.54 142.12 -540.88 18.27 -27.82 82.75 54.36zm-101.02 -26.54c7.32,-27.89 35.89,-44.56 63.78,-37.24 27.89,7.32 44.56,35.89 37.24,63.78l-101.02 -26.54zm948.65 -625l-865.9 679.36 -64.48 -82.18 865.9 -679.36 65.88 81.04 -1.4 1.14zm-64.48 -82.18c22.69,-17.8 55.53,-13.84 73.33,8.85 17.8,22.69 13.84,55.53 -8.85,73.33l-64.48 -82.18zm106.07 -75.47l58.02 86.84 0.51 -0.33 -10.05 6.88 -9.55 6.57 -9.05 6.24 -8.56 5.91 -4.08 2.84 -3.99 2.77 -3.8 2.64 -3.73 2.61 -3.62 2.53 -3.38 2.38 -3.31 2.34 -3.24 2.29 -3.1 2.21 -2.94 2.09 -2.74 1.96 -2.71 1.96 -2.55 1.84 -2.42 1.77 -2.27 1.67 -2.13 1.58 -2.02 1.5 -1.73 1.31 -1.78 1.36 -1.55 1.2 -1.35 1.06 -1.24 0.99 -0.98 0.79 -0.85 0.71 -67.28 -79.9 1.79 -1.49 1.9 -1.55 1.88 -1.49 2.03 -1.6 2.07 -1.58 2.08 -1.6 2.37 -1.79 2.34 -1.74 2.47 -1.84 2.57 -1.87 2.66 -1.95 2.79 -2.02 2.85 -2.06 3.08 -2.22 3.14 -2.23 3.2 -2.27 3.32 -2.35 3.47 -2.46 3.66 -2.56 3.68 -2.57 3.79 -2.65 3.98 -2.78 4.03 -2.79 4.18 -2.9 8.68 -6.01 9.17 -6.32 9.65 -6.63 10.13 -6.96 0.51 -0.33zm-0.51 0.33c23.79,-16.3 56.31,-10.22 72.61,13.57 16.3,23.79 10.22,56.31 -13.57,72.61l-59.04 -86.18zm156.22 10.27l0 -104.46 28.96 95.69 -5.46 3.64 -5.82 3.9 -6.13 4.1 -6.44 4.34 -6.82 4.58 -7.09 4.76 -7.39 4.99 -7.77 5.23 -8.08 5.43 -8.42 5.67 -8.73 5.87 -9.03 6.07 -9.38 6.29 -9.69 6.5 -10.05 6.73 -10.35 6.91 -58.02 -86.84 10.29 -6.89 9.97 -6.67 9.65 -6.48 9.34 -6.27 9.03 -6.07 8.71 -5.83 8.36 -5.63 8.06 -5.43 7.73 -5.21 7.47 -5.03 7.15 -4.8 6.78 -4.56 6.52 -4.38 6.21 -4.16 5.88 -3.94 5.6 -3.74 28.96 95.69zm-28.96 -95.69c24,-15.99 56.43,-9.5 72.42,14.5 15.99,24 9.5,56.43 -14.5,72.42l-57.92 -86.92zm-883.74 -8.77l912.7 0 0 104.46 -912.7 0 -50.47 -65.66 50.47 -38.8zm0 104.46c-28.84,0 -52.23,-23.39 -52.23,-52.23 0,-28.84 23.39,-52.23 52.23,-52.23l0 104.46zm257.15 -815.41l-206.68 776.61 -100.94 -26.86 206.68 -776.61 50.47 -38.8 50.47 65.66zm-100.94 -26.86c7.41,-27.87 36.03,-44.45 63.9,-37.04 27.87,7.41 44.45,36.03 37.04,63.9l-100.94 -26.86zm2272.33 65.66l-2221.86 0 0 -104.46 2221.86 0 50.51 65.5 -50.51 38.96zm0 -104.46c28.84,0 52.23,23.39 52.23,52.23 0,28.84 -23.39,52.23 -52.23,52.23l0 -104.46zm-225.43 704.95l174.92 -665.99 101.02 26.54 -174.92 665.99 -19.44 28.71 -81.58 -55.25zm101.02 26.54c-7.32,27.89 -35.89,44.56 -63.78,37.24 -27.89,-7.32 -44.56,-35.89 -37.24,-63.78l101.02 26.54zm-946.02 584.68l864.44 -639.93 62.14 83.96 -864.44 639.93 -0.84 0.61 -61.3 -84.57zm62.14 83.96c-23.18,17.15 -55.9,12.27 -73.05,-10.91 -17.15,-23.18 -12.27,-55.9 10.91,-73.05l62.14 83.96zm-124.52 85.31l-57.74 -87.04 0.29 -0.19 3.78 -2.48 3.79 -2.49 3.77 -2.49 3.81 -2.52 3.79 -2.51 3.74 -2.5 3.8 -2.53 3.76 -2.52 3.76 -2.53 3.77 -2.54 3.78 -2.56 3.79 -2.57 3.75 -2.55 3.79 -2.58 3.74 -2.56 3.75 -2.57 3.75 -2.58 3.8 -2.62 3.78 -2.6 3.69 -2.56 7.58 -5.27 7.53 -5.25 7.52 -5.27 7.56 -5.32 7.54 -5.33 7.55 -5.35 60.46 85.18 -7.69 5.45 -7.7 5.43 -7.68 5.4 -7.7 5.41 -7.71 5.37 -7.66 5.33 -3.93 2.72 -3.86 2.66 -3.82 2.64 -3.87 2.66 -3.89 2.67 -3.9 2.66 -3.85 2.62 -3.89 2.65 -3.87 2.61 -3.86 2.62 -3.89 2.62 -3.9 2.63 -3.92 2.62 -3.86 2.59 -3.94 2.62 -3.91 2.59 -3.89 2.58 -3.93 2.59 -3.91 2.57 -3.94 2.58 0.29 -0.19zm-0.29 0.19c-24.14,15.78 -56.51,9.01 -72.29,-15.13 -15.78,-24.14 -9.01,-56.51 15.13,-72.29l57.16 87.42zm-150.02 -18.49l0 104.46 -27.15 -96.84 3.71 -2.26 3.77 -2.32 3.78 -2.31 3.69 -2.27 3.76 -2.33 3.76 -2.32 3.73 -2.32 3.72 -2.32 3.71 -2.31 3.75 -2.36 3.74 -2.35 3.68 -2.32 3.74 -2.38 3.82 -2.41 3.68 -2.33 3.67 -2.35 3.77 -2.41 3.77 -2.42 3.72 -2.39 3.7 -2.39 3.78 -2.44 3.75 -2.42 3.71 -2.41 3.71 -2.42 7.52 -4.92 7.53 -4.94 7.52 -4.95 7.53 -4.99 57.74 87.04 -7.71 5.11 -7.7 5.07 -7.67 5.04 -7.66 5 -3.87 2.52 -3.87 2.51 -3.83 2.48 -3.8 2.46 -3.86 2.49 -3.86 2.47 -3.81 2.44 -3.79 2.43 -3.89 2.49 -3.9 2.47 -3.76 2.39 -3.82 2.42 -3.9 2.46 -3.84 2.41 -3.83 2.4 -3.87 2.43 -3.86 2.4 -3.87 2.4 -3.84 2.38 -3.84 2.37 -3.91 2.41 -3.84 2.35 -3.85 2.36 -3.91 2.38 -27.15 -96.84zm27.15 96.84c-24.63,14.99 -56.77,7.17 -71.76,-17.46 -14.99,-24.63 -7.17,-56.77 17.46,-71.76l54.3 89.22zm901.33 7.62l-928.48 0 0 -104.46 928.48 0 50.56 65.3 -50.56 39.16zm0 -104.46c28.84,0 52.23,23.39 52.23,52.23 0,28.84 -23.39,52.23 -52.23,52.23l0 -104.46zm-228.37 727.06l177.81 -687.9 101.12 26.14 -177.81 687.9 -50.56 39.16 -50.56 -65.3zm101.12 26.14c-7.21,27.92 -35.71,44.7 -63.63,37.49 -27.92,-7.21 -44.7,-35.71 -37.49,-63.63l101.12 26.14zm-2271.51 -65.3l2220.95 0 0 104.46 -2220.95 0 -50.51 -65.5 50.51 -38.96zm0 104.46c-28.84,0 -52.23,-23.39 -52.23,-52.23 0,-28.84 23.39,-52.23 52.23,-52.23l0 104.46z"/>
   <path id="_1_0" class="fil3" d="M14417.81 10718.24l142.12 -540.88 865.9 -679.36c13.41,-11.29 47.75,-35.4 102.84,-73.14 55.93,-37.37 98.02,-65.94 126.7,-85.05l-912.7 0 206.68 -776.61 2221.86 0 -174.92 665.99 -864.44 639.93c-40.66,28.86 -81.14,56.84 -122.32,83.77 -40.7,27 -80.74,52.68 -121.44,77.45l928.48 0 -177.81 687.9 -2220.95 0z"/>
  </g>
  <g>
   <path class="fil6" d="M18384.42 9423.83l-50.96 -91.18 -0.13 0.08 5.83 -3.21 5.91 -3.11 6 -3.02 6.02 -2.89 6.08 -2.78 6.21 -2.71 6.25 -2.59 6.27 -2.46 6.35 -2.37 6.45 -2.28 6.46 -2.14 6.52 -2.06 6.62 -1.96 6.67 -1.85 6.69 -1.73 6.77 -1.64 6.85 -1.54 6.86 -1.42 6.91 -1.33 7.02 -1.24 7.07 -1.12 7.09 -1.02 7.14 -0.93 7.18 -0.82 7.29 -0.74 7.34 -0.63 7.35 -0.53 7.42 -0.43 7.45 -0.34 7.56 -0.24 7.6 -0.14 7.63 -0.05 0 104.46 -6.35 0.03 -6.22 0.12 -6.16 0.2 -6.11 0.28 -6.04 0.35 -5.95 0.43 -5.84 0.49 -5.77 0.58 -5.72 0.66 -5.66 0.73 -5.57 0.8 -5.45 0.88 -5.38 0.94 -5.35 1.03 -5.28 1.1 -5.17 1.16 -5.11 1.24 -5.05 1.31 -4.95 1.37 -4.88 1.44 -4.84 1.52 -4.78 1.6 -4.67 1.64 -4.63 1.73 -4.57 1.8 -4.49 1.85 -4.39 1.91 -4.38 2.02 -4.34 2.07 -4.22 2.12 -4.19 2.21 -4.13 2.27 -0.13 0.08zm0.13 -0.08c-25.13,14.14 -56.98,5.23 -71.12,-19.9 -14.14,-25.13 -5.23,-56.98 19.9,-71.12l51.22 91.02zm-120.7 124.03l-90.34 -52.42 0.8 -1.34 4.19 -6.65 4.23 -6.56 4.28 -6.45 4.31 -6.34 4.38 -6.25 4.42 -6.16 4.49 -6.08 4.52 -5.95 4.57 -5.85 4.65 -5.77 4.65 -5.62 4.73 -5.55 4.79 -5.46 4.83 -5.33 4.88 -5.24 4.94 -5.12 5 -5.04 5.04 -4.9 5.07 -4.79 5.16 -4.71 5.23 -4.61 5.25 -4.47 5.3 -4.36 5.37 -4.25 5.43 -4.15 5.47 -4.01 5.51 -3.91 5.6 -3.81 5.6 -3.64 5.7 -3.58 5.79 -3.46 5.77 -3.3 50.96 91.18 -4.03 2.3 -3.95 2.36 -3.96 2.48 -4 2.62 -3.94 2.67 -3.95 2.79 -3.95 2.91 -3.89 2.97 -3.91 3.11 -3.9 3.2 -3.89 3.31 -3.85 3.39 -3.84 3.51 -3.87 3.65 -3.84 3.74 -3.8 3.82 -3.8 3.96 -3.8 4.06 -3.77 4.17 -3.75 4.26 -3.73 4.39 -3.75 4.52 -3.69 4.59 -3.69 4.73 -3.68 4.83 -3.63 4.92 -3.64 5.06 -3.6 5.17 -3.61 5.3 -3.58 5.39 -3.55 5.5 -3.53 5.61 0.8 -1.34zm-0.8 1.34c-15.21,24.5 -47.42,32.03 -71.92,16.82 -24.5,-15.21 -32.03,-47.42 -16.82,-71.92l88.74 55.1zm-69.78 167l-99.98 -30.26 -0.05 0.19 2.06 -6.83 2.09 -6.73 2.1 -6.67 2.15 -6.65 2.18 -6.58 2.2 -6.52 2.22 -6.44 2.27 -6.46 2.32 -6.39 2.3 -6.26 2.35 -6.26 2.38 -6.18 2.4 -6.14 2.45 -6.12 2.48 -6.03 2.5 -6 2.53 -5.92 2.54 -5.84 2.59 -5.84 2.61 -5.76 2.63 -5.71 2.68 -5.67 2.71 -5.63 2.72 -5.52 2.74 -5.5 2.8 -5.46 2.79 -5.38 2.85 -5.36 2.85 -5.27 2.9 -5.26 2.94 -5.2 2.94 -5.11 90.34 52.42 -2.52 4.39 -2.48 4.4 -2.46 4.46 -2.47 4.55 -2.43 4.58 -2.43 4.66 -2.4 4.7 -2.38 4.76 -2.38 4.84 -2.33 4.85 -2.32 4.93 -2.31 4.99 -2.29 5.04 -2.25 5.08 -2.26 5.2 -2.23 5.22 -2.2 5.26 -2.18 5.35 -2.15 5.36 -2.14 5.46 -2.12 5.52 -2.09 5.56 -2.1 5.68 -2.04 5.65 -2.01 5.72 -2.02 5.84 -1.98 5.86 -1.96 5.94 -1.93 5.97 -1.92 6.07 -1.89 6.11 -1.86 6.15 -0.05 0.19zm0.05 -0.19c-8.25,27.63 -37.35,43.35 -64.98,35.1 -27.63,-8.25 -43.35,-37.35 -35.1,-64.98l100.08 29.88zm-29.49 159.58l-104.46 0 0 0 0.04 -5.18 0.11 -5.17 0.18 -5.2 0.25 -5.33 0.32 -5.36 0.4 -5.42 0.46 -5.41 0.52 -5.45 0.59 -5.51 0.66 -5.62 0.72 -5.61 0.78 -5.66 0.86 -5.76 0.92 -5.77 0.98 -5.87 1.05 -5.88 1.1 -5.92 1.18 -6.03 1.22 -5.99 1.29 -6.09 1.36 -6.18 1.42 -6.21 1.49 -6.29 1.54 -6.3 1.59 -6.32 1.66 -6.43 1.73 -6.52 1.79 -6.52 1.82 -6.54 1.91 -6.68 1.97 -6.69 2.01 -6.74 99.98 30.26 -1.85 6.18 -1.79 6.09 -1.71 5.98 -1.68 6 -1.61 5.88 -1.53 5.76 -1.48 5.73 -1.43 5.72 -1.38 5.6 -1.29 5.47 -1.24 5.45 -1.18 5.32 -1.11 5.31 -1.08 5.25 -1 5.11 -0.94 5.06 -0.89 4.98 -0.82 4.87 -0.76 4.83 -0.7 4.7 -0.64 4.66 -0.6 4.59 -0.52 4.44 -0.47 4.43 -0.42 4.33 -0.36 4.25 -0.3 4.1 -0.24 4.02 -0.19 3.93 -0.12 3.9 -0.09 3.79 -0.02 3.66 0 0zm0 0c0,28.84 -23.39,52.23 -52.23,52.23 -28.84,0 -52.23,-23.39 -52.23,-52.23l104.46 0zm49.2 113.09l-65.78 81.14 -0.61 -0.51 -5.22 -4.47 -5.1 -4.61 -4.94 -4.72 -4.82 -4.85 -4.67 -4.97 -4.5 -5.06 -4.37 -5.2 -4.21 -5.32 -4.03 -5.39 -3.9 -5.55 -3.72 -5.64 -3.55 -5.74 -3.39 -5.88 -3.22 -5.96 -3.03 -6.05 -2.84 -6.12 -2.68 -6.2 -2.51 -6.34 -2.33 -6.41 -2.15 -6.48 -1.96 -6.56 -1.78 -6.59 -1.62 -6.7 -1.43 -6.77 -1.26 -6.82 -1.08 -6.89 -0.91 -6.94 -0.74 -7 -0.57 -7.01 -0.41 -7.11 -0.24 -7.16 -0.09 -7.21 104.46 0 0.05 4.85 0.16 4.76 0.27 4.63 0.37 4.57 0.46 4.42 0.57 4.3 0.66 4.21 0.76 4.1 0.85 4.01 0.94 3.9 1.04 3.87 1.12 3.72 1.21 3.66 1.29 3.57 1.39 3.48 1.48 3.46 1.58 3.38 1.65 3.29 1.74 3.24 1.83 3.16 1.95 3.14 2.02 3.08 2.14 3.03 2.25 3.03 2.35 2.96 2.45 2.92 2.58 2.9 2.67 2.85 2.8 2.81 2.94 2.8 3.04 2.75 3.2 2.75 -0.61 -0.51zm0.61 0.51c22.12,18.5 25.06,51.44 6.56,73.56 -18.5,22.12 -51.44,25.06 -73.56,6.56l67 -80.12zm153.41 44.02l0 104.46 0 0 -8.15 -0.07 -8.07 -0.18 -8.03 -0.31 -7.91 -0.44 -7.87 -0.56 -7.77 -0.7 -7.64 -0.82 -7.65 -0.95 -7.53 -1.09 -7.44 -1.21 -7.38 -1.35 -7.25 -1.47 -7.21 -1.61 -7.18 -1.76 -7.05 -1.89 -6.93 -2.02 -6.86 -2.15 -6.81 -2.3 -6.71 -2.45 -6.61 -2.57 -6.52 -2.73 -6.46 -2.87 -6.33 -3 -6.22 -3.13 -6.18 -3.31 -6.05 -3.44 -5.93 -3.56 -5.81 -3.69 -5.74 -3.86 -5.64 -4.01 -5.46 -4.09 -5.41 -4.26 65.78 -81.14 3.27 2.58 3.4 2.55 3.42 2.43 3.5 2.34 3.63 2.31 3.71 2.24 3.77 2.14 3.84 2.05 4 2.01 4.07 1.94 4.16 1.85 4.26 1.77 4.39 1.71 4.47 1.63 4.57 1.54 4.72 1.49 4.85 1.4 4.91 1.33 4.98 1.22 5.15 1.15 5.29 1.07 5.38 0.99 5.5 0.89 5.61 0.81 5.69 0.71 5.9 0.62 5.97 0.54 6.07 0.44 6.21 0.34 6.29 0.25 6.47 0.14 6.57 0.05 0 0zm0 0c28.84,0 52.23,23.39 52.23,52.23 0,28.84 -23.39,52.23 -52.23,52.23l0 -104.46zm277.11 -134.23l81.46 65.38 0.1 -0.12 -8.55 10.45 -8.73 10.15 -8.91 9.86 -9.12 9.57 -9.29 9.23 -9.46 8.93 -9.66 8.63 -9.85 8.31 -10.04 7.99 -10.21 7.66 -10.38 7.33 -10.59 7.02 -10.74 6.66 -10.92 6.34 -11.08 6 -11.26 5.67 -11.45 5.32 -11.58 4.97 -11.72 4.62 -11.89 4.28 -12.05 3.94 -12.19 3.59 -12.33 3.23 -12.45 2.89 -12.6 2.54 -12.72 2.2 -12.84 1.86 -12.98 1.51 -13.09 1.17 -13.22 0.84 -13.32 0.5 -13.45 0.17 0 -104.46 10.85 -0.13 10.68 -0.4 10.5 -0.66 10.35 -0.93 10.16 -1.19 10 -1.44 9.86 -1.7 9.68 -1.96 9.53 -2.21 9.39 -2.47 9.23 -2.71 9.07 -2.96 8.97 -3.24 8.84 -3.48 8.7 -3.73 8.55 -3.98 8.44 -4.25 8.34 -4.5 8.22 -4.78 8.12 -5.04 7.99 -5.3 7.92 -5.59 7.79 -5.84 7.7 -6.13 7.59 -6.41 7.5 -6.69 7.42 -7.01 7.33 -7.29 7.2 -7.55 7.13 -7.88 7.03 -8.17 6.93 -8.49 0.1 -0.12zm-0.1 0.12c17.98,-22.54 50.86,-26.24 73.4,-8.26 22.54,17.98 26.24,50.86 8.26,73.4l-81.66 -65.14zm111.07 -358.97l104.46 0 0 0 -0.13 15.61 -0.37 15.5 -0.64 15.33 -0.87 15.18 -1.14 15.07 -1.4 14.89 -1.64 14.74 -1.91 14.62 -2.17 14.46 -2.43 14.32 -2.69 14.14 -2.95 14.02 -3.23 13.88 -3.48 13.69 -3.75 13.56 -4.02 13.4 -4.28 13.25 -4.57 13.1 -4.83 12.92 -5.1 12.76 -5.37 12.61 -5.65 12.43 -5.9 12.26 -6.2 12.11 -6.46 11.91 -6.73 11.76 -7.01 11.57 -7.27 11.38 -7.53 11.2 -7.82 11.05 -8.09 10.86 -8.34 10.65 -81.46 -65.38 6.8 -8.69 6.59 -8.82 6.34 -8.97 6.15 -9.14 5.93 -9.3 5.71 -9.43 5.49 -9.58 5.28 -9.75 5.06 -9.89 4.86 -10.08 4.65 -10.23 4.43 -10.39 4.22 -10.56 4.01 -10.74 3.79 -10.88 3.58 -11.07 3.38 -11.24 3.15 -11.42 2.96 -11.61 2.73 -11.76 2.51 -11.94 2.31 -12.14 2.09 -12.3 1.87 -12.48 1.65 -12.66 1.44 -12.86 1.22 -13.05 1 -13.19 0.77 -13.4 0.56 -13.59 0.33 -13.74 0.11 -13.95 0 0zm0 0c0,-28.84 23.39,-52.23 52.23,-52.23 28.84,0 52.23,23.39 52.23,52.23l-104.46 0zm-49.77 -109.91l64.94 -81.8 -0.32 -0.25 5.41 4.35 5.28 4.47 5.16 4.64 4.98 4.75 4.85 4.9 4.66 5 4.49 5.1 4.36 5.26 4.19 5.4 3.98 5.47 3.84 5.61 3.63 5.69 3.49 5.83 3.29 5.95 3.09 6 2.92 6.12 2.72 6.17 2.56 6.31 2.37 6.41 2.17 6.43 1.99 6.51 1.8 6.58 1.62 6.65 1.44 6.71 1.27 6.78 1.09 6.82 0.91 6.88 0.74 6.94 0.58 7 0.4 7.04 0.24 7.05 0.09 7.14 -104.46 0 -0.05 -4.76 -0.16 -4.69 -0.26 -4.54 -0.36 -4.42 -0.46 -4.32 -0.57 -4.22 -0.65 -4.12 -0.75 -4.02 -0.84 -3.91 -0.94 -3.83 -1.02 -3.72 -1.11 -3.65 -1.19 -3.55 -1.27 -3.43 -1.36 -3.35 -1.48 -3.35 -1.54 -3.24 -1.65 -3.18 -1.71 -3.09 -1.81 -3.03 -1.93 -3.03 -2 -2.93 -2.14 -2.93 -2.19 -2.82 -2.32 -2.8 -2.47 -2.82 -2.56 -2.74 -2.65 -2.68 -2.82 -2.67 -2.9 -2.62 -3.08 -2.61 -3.21 -2.59 -0.32 -0.25zm0.32 0.25c-22.72,-17.75 -26.75,-50.58 -9,-73.3 17.75,-22.72 50.58,-26.75 73.3,-9l-64.3 82.3zm-155.49 -44.52l0 -104.46 0 0 8.06 0.06 8.02 0.18 7.94 0.3 7.84 0.42 7.75 0.54 7.72 0.67 7.66 0.79 7.57 0.93 7.47 1.05 7.43 1.17 7.35 1.32 7.25 1.43 7.2 1.57 7.13 1.71 7.02 1.84 6.98 1.97 6.93 2.14 6.77 2.25 6.73 2.39 6.67 2.55 6.55 2.68 6.49 2.83 6.4 2.97 6.29 3.11 6.2 3.25 6.11 3.4 6.01 3.54 5.95 3.7 5.81 3.83 5.71 3.97 5.6 4.11 5.5 4.26 -64.94 81.8 -3.4 -2.62 -3.48 -2.55 -3.55 -2.47 -3.63 -2.39 -3.67 -2.3 -3.79 -2.22 -3.87 -2.16 -3.96 -2.07 -4.05 -2.01 -4.12 -1.91 -4.23 -1.85 -4.33 -1.76 -4.41 -1.69 -4.53 -1.61 -4.67 -1.55 -4.69 -1.44 -4.82 -1.37 -4.98 -1.3 -5.05 -1.21 -5.16 -1.13 -5.29 -1.05 -5.39 -0.96 -5.47 -0.87 -5.65 -0.79 -5.71 -0.69 -5.82 -0.61 -5.94 -0.51 -6.09 -0.42 -6.2 -0.34 -6.28 -0.24 -6.4 -0.14 -6.54 -0.04 0 0zm0 0c-28.84,0 -52.23,-23.39 -52.23,-52.23 0,-28.84 23.39,-52.23 52.23,-52.23l0 104.46zm913.02 1319.07l567.48 -2155.04 101 26.6 -567.48 2155.04 -50.5 38.93 -50.5 -65.53zm101 26.6c-7.34,27.89 -35.91,44.54 -63.8,37.2 -27.89,-7.34 -44.54,-35.91 -37.2,-63.8l101 26.6zm-1051.68 -65.53l1001.18 0 0 104.46 -1001.18 0 -49.53 -68.78 49.53 -35.68zm0 104.46c-28.84,0 -52.23,-23.39 -52.23,-52.23 0,-28.84 23.39,-52.23 52.23,-52.23l0 104.46zm22.39 -302.4l100.48 28.54 -0.03 0.1 -2.2 7.67 -2.2 7.65 -2.2 7.6 -2.21 7.62 -2.22 7.64 -2.23 7.59 -2.22 7.54 -2.23 7.56 -2.24 7.58 -2.25 7.54 -2.25 7.5 -2.25 7.51 -2.27 7.48 -2.27 7.49 -2.28 7.46 -2.28 7.44 -2.28 7.43 -2.3 7.42 -2.3 7.42 -2.31 7.37 -2.31 7.38 -2.33 7.37 -2.34 7.38 -2.34 7.31 -2.34 7.31 -2.36 7.32 -2.36 7.26 -2.37 7.29 -2.39 7.29 -2.37 7.19 -2.39 7.24 -2.42 7.23 -99.06 -33.1 2.34 -7.03 2.33 -7.06 2.35 -7.13 2.33 -7.07 2.31 -7.11 2.32 -7.16 2.3 -7.12 2.3 -7.19 2.3 -7.19 2.28 -7.18 2.27 -7.19 2.27 -7.24 2.27 -7.27 2.26 -7.24 2.24 -7.28 2.26 -7.31 2.24 -7.32 2.24 -7.34 2.23 -7.33 2.21 -7.36 2.23 -7.39 2.21 -7.4 2.21 -7.4 2.2 -7.4 2.19 -7.44 2.2 -7.5 2.19 -7.47 2.18 -7.46 2.17 -7.5 2.18 -7.56 2.18 -7.53 2.16 -7.55 -0.03 0.1zm0.03 -0.1c7.93,-27.73 36.85,-43.77 64.58,-35.84 27.73,7.93 43.77,36.85 35.84,64.58l-100.42 -28.74zm161.37 -212.68l-91.02 -51.24 96.35 37.58 -1.94 8.23 -1.96 8.22 -1.95 8.17 -1.98 8.22 -1.99 8.18 -1.98 8.13 -2 8.15 -2.01 8.13 -2.02 8.12 -2.03 8.1 -2.03 8.07 -2.05 8.08 -2.06 8.05 -2.05 8.01 -2.07 8 -2.07 8.01 -2.09 7.99 -2.09 7.94 -2.09 7.92 -2.1 7.92 -2.12 7.91 -2.11 7.88 -2.12 7.84 -2.13 7.86 -2.14 7.81 -2.13 7.76 -2.14 7.76 -2.16 7.77 -2.16 7.74 -2.15 7.67 -2.16 7.68 -2.17 7.66 -100.48 -28.54 2.13 -7.5 2.12 -7.54 2.13 -7.59 2.12 -7.58 2.1 -7.59 2.1 -7.64 2.11 -7.68 2.1 -7.67 2.09 -7.68 2.08 -7.72 2.09 -7.74 2.06 -7.73 2.06 -7.78 2.07 -7.82 2.05 -7.82 2.05 -7.81 2.03 -7.83 2.03 -7.88 2.03 -7.91 2.02 -7.89 1.99 -7.9 2.01 -7.95 1.99 -7.94 1.98 -7.96 1.97 -7.97 1.96 -7.99 1.96 -8.03 1.95 -8.02 1.92 -8 1.93 -8.07 1.92 -8.06 1.9 -8.07 96.35 37.58zm-96.35 -37.58c6.6,-28.07 34.73,-45.48 62.8,-38.88 28.07,6.6 45.48,34.73 38.88,62.8l-101.68 -23.92zm-301.2 478.98l-54.66 -89 0.24 -0.15 12.45 -7.74 12.41 -8.05 12.31 -8.33 12.23 -8.66 12.17 -8.96 12.08 -9.28 12.02 -9.59 11.94 -9.89 11.87 -10.22 11.81 -10.53 11.71 -10.83 11.64 -11.15 11.58 -11.49 11.5 -11.78 11.41 -12.1 11.35 -12.44 11.26 -12.74 11.18 -13.06 11.11 -13.38 11.02 -13.7 10.95 -14.03 10.86 -14.35 10.79 -14.68 10.71 -14.99 10.61 -15.3 10.54 -15.65 10.46 -15.95 10.36 -16.27 10.28 -16.61 10.2 -16.92 10.11 -17.25 10.03 -17.57 91.02 51.24 -10.63 18.63 -10.73 18.31 -10.86 18.02 -10.96 17.69 -11.08 17.41 -11.2 17.09 -11.3 16.77 -11.43 16.48 -11.55 16.17 -11.65 15.84 -11.78 15.55 -11.89 15.23 -12 14.92 -12.13 14.62 -12.24 14.3 -12.36 13.98 -12.47 13.66 -12.61 13.38 -12.72 13.04 -12.82 12.71 -12.96 12.43 -13.09 12.09 -13.19 11.77 -13.31 11.46 -13.44 11.13 -13.54 10.81 -13.7 10.5 -13.79 10.16 -13.91 9.84 -14.05 9.53 -14.13 9.17 -14.27 8.86 0.24 -0.15zm-0.24 0.15c-24.65,14.96 -56.78,7.09 -71.74,-17.56 -14.96,-24.65 -7.09,-56.78 17.56,-71.74l54.18 89.3zm-556.33 138.78l0 -104.46 0 0 18.92 -0.12 18.71 -0.37 18.49 -0.6 18.28 -0.87 18.08 -1.1 17.84 -1.34 17.64 -1.59 17.43 -1.83 17.22 -2.07 17.01 -2.31 16.8 -2.56 16.57 -2.79 16.37 -3.04 16.19 -3.28 15.95 -3.51 15.75 -3.75 15.53 -3.99 15.34 -4.23 15.13 -4.47 14.94 -4.71 14.72 -4.94 14.52 -5.17 14.33 -5.42 14.13 -5.66 13.92 -5.88 13.74 -6.13 13.53 -6.36 13.35 -6.61 13.16 -6.84 12.95 -7.06 12.78 -7.33 12.59 -7.54 54.66 89 -14.43 8.66 -14.62 8.37 -14.83 8.1 -15.02 7.8 -15.21 7.53 -15.41 7.24 -15.62 6.97 -15.8 6.68 -15.99 6.4 -16.19 6.12 -16.38 5.85 -16.58 5.56 -16.74 5.27 -16.95 5.01 -17.14 4.73 -17.33 4.45 -17.51 4.17 -17.69 3.89 -17.87 3.62 -18.07 3.36 -18.25 3.07 -18.44 2.8 -18.61 2.53 -18.8 2.27 -18.99 1.99 -19.18 1.73 -19.36 1.46 -19.54 1.18 -19.72 0.93 -19.93 0.66 -20.09 0.39 -20.28 0.14 0 0zm0 0c-28.84,0 -52.23,-23.39 -52.23,-52.23 0,-28.84 23.39,-52.23 52.23,-52.23l0 104.46zm-532.69 -175.41l72.32 -75.36 -0.01 -0.01 9.48 8.81 9.77 8.55 10.05 8.27 10.35 7.99 10.63 7.73 10.94 7.46 11.25 7.18 11.57 6.94 11.87 6.66 12.17 6.39 12.5 6.12 12.83 5.86 13.16 5.59 13.48 5.32 13.8 5.05 14.14 4.76 14.48 4.5 14.81 4.22 15.16 3.94 15.48 3.65 15.84 3.38 16.17 3.09 16.51 2.81 16.85 2.51 17.18 2.22 17.56 1.94 17.87 1.64 18.21 1.34 18.55 1.05 18.9 0.75 19.24 0.45 19.58 0.15 0 104.46 -21.2 -0.17 -20.9 -0.49 -20.62 -0.81 -20.33 -1.15 -20.05 -1.48 -19.75 -1.82 -19.46 -2.14 -19.18 -2.48 -18.89 -2.83 -18.61 -3.15 -18.33 -3.51 -18.02 -3.84 -17.74 -4.19 -17.46 -4.54 -17.15 -4.88 -16.88 -5.24 -16.58 -5.6 -16.28 -5.95 -15.98 -6.3 -15.68 -6.67 -15.37 -7.02 -15.08 -7.38 -14.77 -7.75 -14.45 -8.12 -14.13 -8.46 -13.81 -8.84 -13.5 -9.2 -13.17 -9.55 -12.83 -9.93 -12.51 -10.29 -12.15 -10.63 -11.82 -10.99 -0.01 -0.01zm0.01 0.01c-20.81,-19.96 -21.5,-53.03 -1.54,-73.84 19.96,-20.81 53.03,-21.5 73.84,-1.54l-72.3 75.38zm-184.4 -515.96l104.46 0 0 0 0.15 18.76 0.47 18.44 0.78 18.11 1.1 17.76 1.4 17.45 1.7 17.11 2.02 16.78 2.31 16.44 2.63 16.13 2.91 15.79 3.22 15.46 3.51 15.13 3.8 14.81 4.09 14.47 4.38 14.15 4.67 13.83 4.96 13.53 5.23 13.18 5.53 12.87 5.81 12.58 6.08 12.27 6.35 11.94 6.64 11.65 6.93 11.36 7.21 11.06 7.47 10.77 7.78 10.49 8.04 10.21 8.33 9.91 8.63 9.66 8.91 9.37 9.21 9.12 -72.32 75.36 -11.49 -11.36 -11.13 -11.71 -10.75 -12.04 -10.41 -12.39 -10.02 -12.71 -9.64 -13.03 -9.29 -13.35 -8.89 -13.68 -8.53 -13.98 -8.16 -14.31 -7.77 -14.6 -7.4 -14.91 -7.01 -15.18 -6.65 -15.51 -6.27 -15.8 -5.9 -16.07 -5.53 -16.37 -5.16 -16.65 -4.79 -16.95 -4.42 -17.21 -4.05 -17.49 -3.7 -17.78 -3.33 -18.05 -2.97 -18.31 -2.63 -18.6 -2.26 -18.88 -1.92 -19.15 -1.56 -19.43 -1.2 -19.7 -0.86 -19.97 -0.53 -20.26 -0.17 -20.52 0 0zm0 0c0,-28.84 23.39,-52.23 52.23,-52.23 28.84,0 52.23,23.39 52.23,52.23l-104.46 0zm64.92 -512.29l101.76 23.54 -0.01 0.05 -3.82 16.69 -3.72 16.61 -3.58 16.47 -3.46 16.43 -3.35 16.33 -3.21 16.22 -3.1 16.13 -2.98 16.06 -2.86 15.94 -2.73 15.86 -2.62 15.77 -2.49 15.69 -2.37 15.59 -2.25 15.47 -2.12 15.42 -2.01 15.33 -1.89 15.2 -1.75 15.13 -1.64 15.05 -1.52 14.95 -1.39 14.86 -1.28 14.78 -1.16 14.68 -1.03 14.57 -0.91 14.51 -0.79 14.41 -0.67 14.31 -0.54 14.23 -0.43 14.14 -0.3 14.04 -0.19 13.96 -0.05 13.87 -104.46 0 0.07 -14.77 0.19 -14.86 0.32 -14.94 0.45 -15.02 0.58 -15.09 0.71 -15.17 0.83 -15.25 0.97 -15.33 1.09 -15.41 1.22 -15.48 1.34 -15.56 1.47 -15.64 1.6 -15.73 1.72 -15.79 1.85 -15.89 1.97 -15.98 2.11 -16.03 2.22 -16.12 2.35 -16.23 2.49 -16.27 2.59 -16.35 2.72 -16.45 2.85 -16.54 2.98 -16.62 3.1 -16.68 3.22 -16.77 3.35 -16.86 3.47 -16.93 3.58 -17.01 3.72 -17.13 3.84 -17.17 3.96 -17.27 -0.01 0.05zm0.01 -0.05c6.52,-28.09 34.6,-45.57 62.69,-39.05 28.09,6.52 45.57,34.6 39.05,62.69l-101.74 -23.64zm172.75 -503.91l93.9 45.76 0.15 -0.32 -6.38 13.45 -6.3 13.54 -6.21 13.63 -6.15 13.77 -6.08 13.87 -5.98 13.92 -5.9 14.06 -5.84 14.16 -5.74 14.26 -5.68 14.37 -5.59 14.47 -5.53 14.59 -5.43 14.66 -5.36 14.78 -5.28 14.89 -5.2 15.01 -5.12 15.1 -5.04 15.19 -4.96 15.32 -4.89 15.43 -4.81 15.53 -4.71 15.63 -4.65 15.75 -4.57 15.87 -4.49 15.96 -4.4 16.07 -4.32 16.19 -4.25 16.31 -4.17 16.4 -4.08 16.51 -4.01 16.63 -3.93 16.74 -101.76 -23.54 4.07 -17.36 4.15 -17.23 4.24 -17.15 4.33 -17.04 4.41 -16.93 4.5 -16.81 4.58 -16.73 4.67 -16.6 4.75 -16.51 4.83 -16.39 4.93 -16.31 5.01 -16.19 5.09 -16.09 5.18 -15.98 5.26 -15.89 5.36 -15.78 5.44 -15.67 5.52 -15.57 5.6 -15.48 5.71 -15.38 5.77 -15.25 5.87 -15.17 5.94 -15.05 6.04 -14.98 6.12 -14.86 6.2 -14.76 6.3 -14.68 6.38 -14.55 6.45 -14.45 6.55 -14.37 6.64 -14.28 6.72 -14.15 0.15 -0.32zm-0.15 0.32c12.45,-26.01 43.65,-36.99 69.66,-24.54 26.01,12.45 36.99,43.65 24.54,69.66l-94.2 -45.12zm406.28 -518.11l58.86 86.3 -0.19 0.12 -12.64 8.76 -12.58 9.15 -12.52 9.53 -12.44 9.92 -12.4 10.32 -12.33 10.71 -12.26 11.11 -12.2 11.5 -12.13 11.9 -12.07 12.3 -12.01 12.71 -11.94 13.1 -11.87 13.5 -11.81 13.9 -11.73 14.29 -11.66 14.7 -11.59 15.11 -11.52 15.5 -11.44 15.9 -11.37 16.32 -11.3 16.7 -11.22 17.12 -11.15 17.51 -11.06 17.9 -10.99 18.32 -10.91 18.71 -10.83 19.11 -10.75 19.5 -10.67 19.91 -10.59 20.31 -10.5 20.71 -10.42 21.1 -93.9 -45.76 10.92 -22.1 11.02 -21.71 11.13 -21.35 11.23 -20.97 11.35 -20.6 11.45 -20.21 11.57 -19.83 11.67 -19.46 11.8 -19.08 11.89 -18.69 12.02 -18.32 12.12 -17.94 12.25 -17.56 12.36 -17.18 12.48 -16.8 12.59 -16.41 12.72 -16.04 12.85 -15.65 12.95 -15.26 13.09 -14.88 13.2 -14.48 13.33 -14.09 13.45 -13.72 13.59 -13.32 13.7 -12.92 13.84 -12.53 13.97 -12.15 14.1 -11.74 14.22 -11.34 14.36 -10.93 14.48 -10.53 14.62 -10.12 -0.19 0.12zm0.19 -0.12c23.89,-16.14 56.37,-9.86 72.51,14.03 16.14,23.89 9.86,56.37 -14.03,72.51l-58.48 -86.54zm591.1 -157.69l0 104.46 0 0 -20.66 0.13 -20.4 0.43 -20.12 0.69 -19.87 0.98 -19.61 1.25 -19.34 1.53 -19.06 1.8 -18.8 2.09 -18.56 2.35 -18.29 2.63 -18.01 2.9 -17.76 3.18 -17.5 3.44 -17.24 3.72 -16.99 3.98 -16.7 4.26 -16.46 4.52 -16.22 4.8 -15.95 5.05 -15.69 5.32 -15.45 5.6 -15.21 5.86 -14.93 6.12 -14.71 6.38 -14.45 6.66 -14.2 6.91 -13.97 7.18 -13.74 7.45 -13.49 7.71 -13.24 7.97 -13.02 8.24 -12.79 8.52 -58.86 -86.3 14.77 -9.82 15.02 -9.52 15.28 -9.19 15.53 -8.87 15.76 -8.55 16.01 -8.24 16.26 -7.91 16.49 -7.58 16.73 -7.28 16.99 -6.96 17.21 -6.62 17.45 -6.32 17.69 -6 17.93 -5.69 18.14 -5.36 18.38 -5.06 18.64 -4.74 18.85 -4.42 19.08 -4.12 19.32 -3.8 19.54 -3.5 19.79 -3.18 20.01 -2.87 20.22 -2.57 20.46 -2.27 20.72 -1.96 20.92 -1.65 21.15 -1.35 21.39 -1.06 21.62 -0.75 21.86 -0.45 22.08 -0.15 0 0zm0 0c28.84,0 52.23,23.39 52.23,52.23 0,28.84 -23.39,52.23 -52.23,52.23l0 -104.46zm517.72 119.16l-58.96 86.22 0.16 0.11 -9.03 -5.93 -9.35 -5.78 -9.68 -5.61 -10.03 -5.45 -10.37 -5.29 -10.71 -5.13 -11.05 -4.95 -11.42 -4.8 -11.71 -4.6 -12.09 -4.43 -12.45 -4.26 -12.78 -4.08 -13.14 -3.89 -13.47 -3.71 -13.83 -3.52 -14.17 -3.33 -14.53 -3.14 -14.89 -2.95 -15.21 -2.76 -15.55 -2.55 -15.91 -2.35 -16.27 -2.16 -16.59 -1.96 -16.93 -1.76 -17.28 -1.54 -17.63 -1.35 -17.97 -1.15 -18.29 -0.94 -18.64 -0.72 -18.98 -0.53 -19.32 -0.31 -19.65 -0.1 0 -104.46 20.77 0.12 20.48 0.33 20.16 0.55 19.88 0.78 19.59 1 19.27 1.23 18.97 1.45 18.68 1.68 18.39 1.9 18.09 2.14 17.77 2.36 17.51 2.59 17.21 2.83 16.91 3.06 16.59 3.29 16.33 3.52 16.03 3.77 15.73 4 15.45 4.25 15.14 4.49 14.86 4.74 14.55 4.98 14.27 5.23 13.99 5.5 13.66 5.74 13.37 5.99 13.09 6.27 12.77 6.51 12.47 6.79 12.18 7.05 11.85 7.32 11.55 7.59 0.16 0.11zm-0.16 -0.11c23.86,16.19 30.09,48.68 13.9,72.54 -16.19,23.86 -48.68,30.09 -72.54,13.9l58.64 -86.44zm130.93 396.59l101.98 22.62 -102.23 -1.23 -3.07 -14.94 -3.26 -14.62 -3.46 -14.32 -3.66 -14.02 -3.84 -13.71 -4.04 -13.4 -4.22 -13.11 -4.41 -12.78 -4.61 -12.49 -4.78 -12.2 -4.96 -11.87 -5.15 -11.58 -5.33 -11.29 -5.51 -11 -5.69 -10.7 -5.86 -10.42 -6.02 -10.1 -6.22 -9.83 -6.39 -9.56 -6.54 -9.25 -6.73 -8.99 -6.91 -8.71 -7.07 -8.44 -7.25 -8.17 -7.43 -7.91 -7.61 -7.66 -7.77 -7.39 -7.97 -7.13 -8.15 -6.89 -8.34 -6.64 -8.51 -6.38 -8.72 -6.15 58.96 -86.22 11.2 7.89 10.95 8.22 10.72 8.54 10.45 8.83 10.23 9.17 9.97 9.47 9.71 9.76 9.45 10.07 9.21 10.37 8.95 10.68 8.67 10.95 8.43 11.25 8.18 11.55 7.89 11.82 7.64 12.09 7.4 12.4 7.12 12.66 6.87 12.92 6.61 13.2 6.37 13.47 6.11 13.76 5.86 14.01 5.6 14.28 5.35 14.53 5.11 14.82 4.86 15.07 4.62 15.32 4.38 15.61 4.12 15.84 3.9 16.12 3.66 16.4 3.41 16.64 -102.23 -1.23zm102.23 1.23c5.56,28.29 -12.87,55.76 -41.16,61.32 -28.29,5.56 -55.76,-12.87 -61.32,-41.16l102.48 -20.16zm-57.05 -195.54l101.8 23.4 -0.05 0.19 -3.96 16.95 -3.82 16.32 -3.67 15.66 -3.52 15.02 -3.37 14.38 -3.22 13.71 -3.05 13.08 -2.91 12.46 -2.76 11.79 -2.59 11.09 -2.41 10.47 -2.28 9.85 -2.11 9.16 -1.93 8.48 -1.76 7.78 -1.59 7.14 -101.98 -22.62 1.65 -7.4 1.82 -8.06 1.99 -8.66 2.13 -9.28 2.28 -9.89 2.45 -10.57 2.61 -11.23 2.76 -11.83 2.91 -12.44 3.07 -13.12 3.22 -13.75 3.37 -14.38 3.52 -15.02 3.67 -15.66 3.82 -16.28 3.96 -16.93 -0.05 0.19zm0.05 -0.19c6.56,-28.08 34.66,-45.52 62.74,-38.96 28.08,6.56 45.52,34.66 38.96,62.74l-101.7 -23.78zm103.09 -262.58l0 104.46 50.75 -39.9 -2.59 10.7 -2.69 11.12 -2.76 11.49 -2.85 11.95 -2.95 12.36 -3.03 12.78 -3.12 13.19 -3.2 13.63 -3.31 14.07 -3.38 14.46 -3.48 14.9 -3.57 15.33 -3.65 15.75 -3.75 16.2 -3.84 16.62 -3.92 17.06 -101.8 -23.4 3.94 -17.12 3.86 -16.68 3.75 -16.24 3.67 -15.83 3.59 -15.39 3.48 -14.96 3.42 -14.56 3.31 -14.11 3.22 -13.69 3.14 -13.29 3.05 -12.88 2.97 -12.44 2.87 -12.03 2.8 -11.65 2.71 -11.2 2.61 -10.8 50.75 -39.9zm-50.75 39.9c6.8,-28.02 35.06,-45.22 63.08,-38.42 28.02,6.8 45.22,35.06 38.42,63.08l-101.5 -24.66zm1074.91 64.56l-1024.16 0 0 -104.46 1024.16 0 50.5 65.53 -50.5 38.93zm0 -104.46c28.84,0 52.23,23.39 52.23,52.23 0,28.84 -23.39,52.23 -52.23,52.23l0 -104.46z"/>
   <path id="_1_1" class="fil3" d="M18550.19 9333.64c-74.86,0 -138.42,14.87 -191.25,44.6 -52.43,29.31 -99.3,77.35 -140.26,143.33 -29.23,50.38 -54.65,109.93 -75.4,179.42 -20.94,69.19 -31.68,127.79 -31.68,174.52 0,64.81 22.98,115.56 68.54,153.66 45.74,37.09 107.85,56.19 186.91,56.19 130.35,0 236.01,-51.18 317.84,-153.77 82.1,-102.29 122.47,-232.98 122.47,-391.54 0,-63.86 -22.76,-114.27 -69.53,-150.81 -46.98,-37.3 -109.27,-55.6 -187.64,-55.6zm1531 -770.44l-567.48 2155.04 -1001.18 0c25.39,-75.99 49.39,-154.68 72.63,-235.9 22.94,-80.77 45.19,-165.68 65.65,-252.67 -109.6,194.73 -236.3,335.72 -379.37,422.52 -143.03,87.83 -319.09,131.2 -529.24,131.2 -219.13,0 -384.63,-53.53 -496.53,-160.86 -112.13,-107.6 -168.32,-267.11 -168.32,-478.27 0,-152.35 21.38,-318.95 63.57,-500.52 42.2,-182.42 98.54,-346.13 168.83,-492.85 113.29,-232.46 242.73,-398.95 388.61,-497.52 145.7,-99.37 332.57,-148.73 561.86,-148.73 217.31,0 380.25,36.79 488.24,110.04 107.34,73.4 177.82,194.73 211.24,364.68 8.22,-37.04 23.57,-101.89 45.09,-193.92 21.22,-92.28 38.58,-166.01 52.24,-222.24l1024.16 0z"/>
  </g>
  <g>
   <path class="fil6" d="M8634.53 9545.81l-165.94 -38.7 -0.09 0.38 3.5 -15.37 3.53 -15.53 1.75 -7.77 1.77 -7.87 1.77 -7.84 1.76 -7.87 1.76 -7.92 1.77 -8 1.78 -8.04 1.78 -8.02 1.77 -8.07 1.77 -8.11 1.77 -8.14 1.79 -8.22 1.78 -8.23 1.76 -8.2 1.78 -8.3 1.77 -8.33 1.77 -8.38 1.78 -8.42 1.77 -8.45 1.77 -8.48 1.77 -8.5 1.76 -8.58 1.78 -8.61 1.74 -8.56 1.76 -8.7 1.76 -8.74 1.75 -8.73 1.75 -8.81 167.14 33.12 -1.79 8.99 -1.79 8.99 -1.8 8.88 -1.78 8.86 -1.82 8.9 -1.8 8.77 -1.8 8.72 -1.81 8.74 -1.81 8.66 -1.81 8.61 -1.8 8.56 -1.81 8.54 -1.81 8.49 -1.8 8.46 -1.82 8.46 -1.82 8.37 -1.79 8.3 -1.81 8.3 -1.81 8.25 -1.81 8.23 -1.8 8.2 -1.8 8.1 -1.79 8.06 -1.8 8.08 -1.8 8.05 -1.79 8 -1.79 7.91 -1.79 7.93 -3.55 15.67 -3.54 15.53 -0.09 0.38zm0.09 -0.38c-10.47,45.87 -56.16,74.56 -102.03,64.09 -45.87,-10.47 -74.56,-56.16 -64.09,-102.03l166.12 37.94zm-56.38 226.2l-164.64 -43.88 0.02 -0.11 1.68 -6.26 1.68 -6.32 1.68 -6.32 1.67 -6.36 1.69 -6.44 1.7 -6.5 1.69 -6.46 1.68 -6.51 1.7 -6.61 1.69 -6.57 1.7 -6.69 1.72 -6.74 1.7 -6.69 1.7 -6.75 1.71 -6.8 1.71 -6.87 1.72 -6.92 1.73 -6.99 1.73 -7 1.72 -6.99 1.73 -7.06 1.72 -7.07 1.74 -7.18 1.75 -7.23 1.74 -7.26 1.76 -7.3 1.74 -7.3 1.74 -7.35 1.76 -7.45 1.77 -7.48 1.75 -7.48 1.77 -7.58 165.94 38.7 -1.79 7.68 -1.81 7.7 -1.79 7.6 -1.78 7.55 -1.8 7.57 -1.8 7.52 -1.78 7.44 -1.78 7.38 -1.77 7.33 -1.76 7.3 -1.78 7.31 -1.77 7.24 -1.78 7.25 -1.77 7.12 -1.75 7.07 -1.76 7.06 -1.75 7.01 -1.75 7 -1.76 6.99 -1.76 6.95 -1.74 6.82 -1.74 6.81 -1.75 6.83 -1.74 6.71 -1.74 6.75 -1.75 6.7 -1.72 6.6 -1.73 6.58 -1.73 6.58 -1.74 6.56 -1.72 6.46 -1.72 6.46 0.02 -0.11zm-0.02 0.11c-12.17,45.45 -58.9,72.42 -104.35,60.25 -45.45,-12.17 -72.42,-58.9 -60.25,-104.35l164.6 44.1zm-429.2 948.79l264.58 -992.78 164.64 43.88 -264.58 992.78 -82.32 63.26 -82.32 -107.14zm164.64 43.88c-12.11,45.46 -58.8,72.49 -104.26,60.38 -45.46,-12.11 -72.49,-58.8 -60.38,-104.26l164.64 43.88zm-1119.13 -107.14l1036.81 0 0 170.4 -1036.81 0 -82.31 -107.2 82.31 -63.2zm0 170.4c-47.05,0 -85.2,-38.15 -85.2,-85.2 0,-47.05 38.15,-85.2 85.2,-85.2l0 170.4zm764.81 -2616.5l-682.5 2553.3 -164.62 -44 682.5 -2553.3 82.31 -63.2 82.31 107.2zm-164.62 -44c12.15,-45.45 58.86,-72.46 104.31,-60.31 45.45,12.15 72.46,58.86 60.31,104.31l-164.62 -44zm1505.13 107.2l-1422.82 0 0 -170.4 1422.82 0 85.15 82.3 -85.15 88.1zm0 -170.4c47.05,0 85.2,38.15 85.2,85.2 0,47.05 -38.15,85.2 -85.2,85.2l0 -170.4zm-53.15 1028.01l-32 -939.91 170.3 -5.8 32 939.91 0.02 0.84 -170.32 4.96zm170.3 -5.8c1.6,47.02 -35.23,86.45 -82.25,88.05 -47.02,1.6 -86.45,-35.23 -88.05,-82.25l170.3 -5.8zm2.26 78.65l-170.36 3.84 -0.01 -0.8 -0.08 -4.81 -0.08 -4.72 -0.11 -4.69 -0.13 -4.83 -0.13 -4.78 -0.15 -4.75 -0.15 -4.81 -0.16 -4.86 -0.16 -4.73 -0.17 -4.77 -0.16 -4.84 -0.16 -4.72 -0.16 -4.86 -0.15 -4.92 -0.14 -4.8 -0.12 -4.84 170.34 -4.12 0.12 4.34 0.12 4.48 0.13 4.4 0.16 4.54 0.16 4.76 0.16 4.7 0.17 4.83 0.16 4.95 0.16 4.9 0.17 5.01 0.15 5.13 0.15 5.16 0.13 5.19 0.13 5.39 0.1 5.42 0.08 5.41 -0.01 -0.8zm0.01 0.8c0.61,47.04 -37.03,85.7 -84.07,86.31 -47.04,0.61 -85.7,-37.03 -86.31,-84.07l170.38 -2.24zm0.63 117.52l-170.4 0 0 0 0 -9.21 0 -8.96 0 -8.66 -0.01 -8.4 -0.01 -8.18 -0.01 -7.89 -0.02 -7.57 -0.03 -7.35 -0.03 -7.09 -0.04 -6.74 -0.04 -6.48 -0.06 -6.2 -0.07 -5.85 -0.09 -5.62 -0.08 -5.34 -0.11 -4.94 170.36 -3.84 0.11 5.64 0.1 5.78 0.09 6.04 0.07 6.35 0.06 6.54 0.06 6.78 0.04 7.04 0.03 7.23 0.03 7.49 0.02 7.81 0.01 7.99 0.01 8.2 0.01 8.5 0 8.76 0 8.96 0 9.21 0 0zm0 0c0,47.05 -38.15,85.2 -85.2,85.2 -47.05,0 -85.2,-38.15 -85.2,-85.2l170.4 0zm-1.65 117.79l-170.3 -5.48 -0.02 0.57 0.18 -7.11 0.16 -7.09 0.16 -7.08 0.15 -7.14 0.15 -7.07 0.13 -7.01 0.11 -7.07 0.11 -7.07 0.1 -7.01 0.08 -7.06 0.08 -7.07 0.05 -7 0.05 -7 0.03 -7.02 0.02 -7.07 0.01 -7.01 170.4 0 -0.01 7.37 -0.02 7.31 -0.03 7.36 -0.05 7.36 -0.07 7.36 -0.08 7.31 -0.08 7.3 -0.1 7.35 -0.11 7.31 -0.13 7.31 -0.13 7.37 -0.15 7.31 -0.15 7.24 -0.16 7.32 -0.18 7.33 -0.18 7.31 -0.02 0.57zm0.02 -0.57c-1.19,47.03 -40.31,84.19 -87.34,83 -47.03,-1.19 -84.19,-40.31 -83,-87.34l170.34 4.34zm-169.21 84.97l155.58 69.48 -162.74 -41.24 0.29 -3.88 0.29 -3.81 0.26 -3.8 0.28 -3.89 0.25 -3.76 0.25 -3.74 0.25 -3.84 0.24 -3.83 0.23 -3.69 0.22 -3.68 0.2 -3.67 0.21 -3.76 0.2 -3.74 0.2 -3.72 0.19 -3.72 0.18 -3.6 0.18 -3.69 0.17 -3.67 0.17 -3.67 0.16 -3.61 0.32 -7.31 0.29 -7.23 0.27 -7.24 0.27 -7.21 0.24 -7.17 0.24 -7.19 170.3 5.48 -0.24 7.41 -0.26 7.49 -0.27 7.53 -0.29 7.56 -0.31 7.65 -0.32 7.65 -0.18 3.89 -0.17 3.87 -0.19 3.87 -0.18 3.89 -0.2 4 -0.21 3.92 -0.2 3.92 -0.22 3.94 -0.21 3.94 -0.24 4.07 -0.24 4.08 -0.25 4.09 -0.26 3.99 -0.25 4.02 -0.27 4.14 -0.29 4.14 -0.28 4.05 -0.3 4.18 -0.31 4.19 -0.31 4.16 -162.74 -41.24zm162.74 41.24c-3.58,46.91 -44.54,82.03 -91.45,78.45 -46.91,-3.58 -82.03,-44.54 -78.45,-91.45l169.9 13zm-95.47 -179.12l151.32 78.32 0.07 -0.13 -2.37 4.61 -2.34 4.54 -2.3 4.5 -2.3 4.49 -2.24 4.41 -2.23 4.4 -2.25 4.43 -2.2 4.36 -2.17 4.3 -2.12 4.22 -2.1 4.2 -2.09 4.19 -2.08 4.2 -2.03 4.09 -2 4.06 -2.02 4.14 -1.96 3.99 -1.91 3.92 -1.92 3.97 -1.87 3.89 -1.89 3.94 -1.83 3.83 -1.78 3.76 -1.78 3.76 -1.74 3.74 -1.77 3.78 -1.7 3.67 -1.66 3.59 -1.65 3.61 -1.62 3.57 -1.59 3.5 -1.57 3.51 -155.58 -69.48 1.75 -3.91 1.79 -3.98 1.8 -3.95 1.83 -3.99 1.86 -4.05 1.88 -4.03 1.85 -3.98 1.92 -4.08 1.94 -4.12 1.98 -4.18 1.99 -4.15 1.97 -4.12 2.03 -4.21 2.04 -4.21 2.09 -4.32 2.1 -4.29 2.08 -4.22 2.14 -4.36 2.17 -4.39 2.16 -4.34 2.19 -4.41 2.24 -4.48 2.26 -4.5 2.27 -4.5 2.28 -4.5 2.27 -4.49 2.33 -4.6 2.38 -4.65 2.36 -4.63 2.4 -4.68 2.42 -4.72 2.43 -4.71 0.07 -0.13zm-0.07 0.13c21.55,-41.82 72.94,-58.25 114.76,-36.7 41.82,21.55 58.25,72.94 36.7,114.76l-151.46 -78.06zm102.95 -185.52l147.52 85.28 -0.29 0.5 -3.83 6.54 -3.8 6.5 -3.76 6.45 -3.67 6.34 -3.64 6.3 -3.61 6.26 -3.5 6.11 -3.49 6.11 -3.46 6.09 -3.41 6 -3.33 5.89 -3.27 5.8 -3.27 5.86 -3.21 5.73 -3.13 5.62 -3.14 5.66 -3.03 5.48 -2.98 5.43 -2.99 5.46 -2.92 5.36 -2.87 5.27 -2.81 5.17 -2.78 5.17 -2.74 5.09 -2.65 4.97 -2.62 4.93 -2.63 4.95 -2.57 4.86 -2.47 4.69 -2.43 4.65 -2.41 4.62 -2.37 4.57 -151.32 -78.32 2.49 -4.81 2.55 -4.9 2.61 -4.99 2.67 -5.07 2.67 -5.04 2.69 -5.09 2.78 -5.23 2.85 -5.31 2.86 -5.33 2.9 -5.37 2.97 -5.51 3.01 -5.53 3.04 -5.56 3.07 -5.6 3.16 -5.77 3.23 -5.82 3.2 -5.78 3.31 -5.96 3.33 -5.95 3.35 -5.96 3.45 -6.16 3.51 -6.19 3.51 -6.2 3.56 -6.23 3.61 -6.35 3.72 -6.47 3.71 -6.44 3.76 -6.52 3.85 -6.62 3.86 -6.63 3.9 -6.7 3.99 -6.8 -0.29 0.5zm0.29 -0.5c23.82,-40.57 76.04,-54.15 116.61,-30.33 40.57,23.82 54.15,76.04 30.33,116.61l-146.94 -86.28zm757.46 -969.76l-610.23 1055.54 -147.52 -85.28 610.23 -1055.54 73.76 -42.56 73.76 127.84zm-147.52 -85.28c23.54,-40.73 75.67,-54.66 116.4,-31.12 40.73,23.54 54.66,75.67 31.12,116.4l-147.52 -85.28zm1534.8 127.84l-1461.04 0 0 -170.4 1461.04 0 82.3 107.25 -82.3 63.15zm0 -170.4c47.05,0 85.2,38.15 85.2,85.2 0,47.05 -38.15,85.2 -85.2,85.2l0 -170.4zm-766.37 2616.45l684.07 -2553.3 164.6 44.1 -684.07 2553.3 -82.3 63.15 -82.3 -107.25zm164.6 44.1c-12.17,45.45 -58.9,72.42 -104.35,60.25 -45.45,-12.17 -72.42,-58.9 -60.25,-104.35l164.6 44.1zm-1115.85 -107.25l1033.55 0 0 170.4 -1033.55 0 -82.36 -106.99 82.36 -63.41zm0 170.4c-47.05,0 -85.2,-38.15 -85.2,-85.2 0,-47.05 38.15,-85.2 85.2,-85.2l0 170.4zm360.71 -1115.49l-278.35 1052.08 -164.72 -43.58 278.35 -1052.08 165.56 40.15 -0.84 3.43zm-164.72 -43.58c12.03,-45.48 58.67,-72.6 104.15,-60.57 45.48,12.03 72.6,58.67 60.57,104.15l-164.72 -43.58zm29.25 -102.94l163.3 48.68 0.01 -0.05 -2.79 9.38 -2.65 8.96 -2.53 8.52 -2.38 8.08 -2.25 7.65 -2.11 7.22 -1.96 6.77 -1.82 6.3 -0.82 2.9 -0.82 2.85 -0.78 2.78 -0.74 2.62 -0.69 2.5 -0.67 2.43 -0.57 2.09 -0.58 2.13 -0.53 2 -0.49 1.88 -0.41 1.54 -0.34 1.38 -0.42 1.7 -0.27 1.1 -0.19 0.84 -0.19 0.84 -166.4 -36.72 0.49 -2.16 0.55 -2.36 0.57 -2.32 0.48 -1.94 0.62 -2.48 0.65 -2.52 0.63 -2.4 0.67 -2.48 0.68 -2.57 0.77 -2.81 0.75 -2.69 0.79 -2.84 0.82 -2.92 0.84 -2.98 0.88 -3.13 0.94 -3.28 1.92 -6.68 2.06 -7.05 2.17 -7.44 2.31 -7.87 2.44 -8.26 2.55 -8.64 2.69 -9.04 2.81 -9.46 0.01 -0.05zm-0.01 0.05c13.41,-45.09 60.86,-70.78 105.95,-57.37 45.09,13.41 70.78,60.86 57.37,105.95l-163.32 -48.58zm248.68 -239.26l-146.26 -87.42 154.63 68.53 -8.61 28.25 -8.25 27.02 -7.89 25.81 -7.52 24.58 -7.16 23.39 -6.81 22.2 -6.43 20.95 -6.07 19.75 -5.69 18.58 -5.34 17.38 -4.94 16.13 -4.57 14.95 -4.19 13.76 -3.83 12.61 -1.75 5.79 -1.67 5.52 -1.55 5.19 -1.47 4.92 -163.3 -48.68 1.53 -5.12 1.63 -5.41 1.71 -5.68 1.81 -5.99 3.87 -12.73 4.23 -13.9 4.61 -15.09 4.98 -16.25 5.34 -17.38 5.69 -18.56 6.07 -19.79 6.43 -20.95 6.79 -22.12 7.14 -23.33 7.52 -24.56 7.87 -25.75 8.23 -26.96 8.59 -28.17 154.63 68.53zm-154.63 -68.53c13.7,-45.01 61.31,-70.38 106.32,-56.68 45.01,13.7 70.38,61.31 56.68,106.32l-163 -49.64zm-47.02 73.77l55.39 -92.66 146.26 87.42 -55.39 92.66 -146.38 -87.22 0.12 -0.2zm146.26 87.42c-24.14,40.38 -76.46,53.56 -116.84,29.42 -40.38,-24.14 -53.56,-76.46 -29.42,-116.84l146.26 87.42zm-189.32 310.39l-143.54 -91.8 0.43 -0.67 3.51 -5.39 3.62 -5.62 3.83 -5.97 4.01 -6.29 4.13 -6.5 4.26 -6.74 4.42 -7.03 4.58 -7.33 4.74 -7.59 4.86 -7.83 5.04 -8.15 5.18 -8.37 5.29 -8.62 5.49 -8.95 5.6 -9.15 5.75 -9.43 5.91 -9.72 6.05 -9.96 6.2 -10.21 6.32 -10.47 6.5 -10.76 6.62 -10.98 6.76 -11.25 6.92 -11.52 7.06 -11.78 7.21 -12.03 7.34 -12.26 7.47 -12.52 7.64 -12.82 7.77 -13.05 7.91 -13.29 8.06 -13.56 146.5 87.02 -8.1 13.62 -7.95 13.39 -7.83 13.11 -7.66 12.86 -7.55 12.64 -7.4 12.38 -7.25 12.11 -7.12 11.86 -6.96 11.6 -6.84 11.37 -6.7 11.12 -6.54 10.84 -6.42 10.61 -6.28 10.37 -6.13 10.1 -5.99 9.82 -5.85 9.61 -5.74 9.37 -5.55 9.05 -5.45 8.86 -5.3 8.59 -5.14 8.31 -5.04 8.11 -4.88 7.83 -4.74 7.57 -4.62 7.35 -4.48 7.1 -4.35 6.84 -4.17 6.53 -4.05 6.33 -3.98 6.16 -3.81 5.85 0.43 -0.67zm-0.43 0.67c-25.71,39.39 -78.52,50.48 -117.91,24.77 -39.39,-25.71 -50.48,-78.52 -24.77,-117.91l142.68 93.14zm-820.31 966.4l677.2 -1058.87 143.54 91.8 -677.2 1058.87 -71.77 39.3 -71.77 -131.1zm143.54 91.8c-25.34,39.63 -78.04,51.21 -117.67,25.87 -39.63,-25.34 -51.21,-78.04 -25.87,-117.67l143.54 91.8zm-662.89 -131.1l591.12 0 0 170.4 -591.12 0 -84.84 -77.39 84.84 -93.01zm0 170.4c-47.05,0 -85.2,-38.15 -85.2,-85.2 0,-47.05 38.15,-85.2 85.2,-85.2l0 170.4zm-7.45 -1096.02l92.29 1003.01 -169.68 15.62 -92.29 -1003.01 169.66 -15.87 0.02 0.25zm-169.68 15.62c-4.31,-46.85 30.18,-88.34 77.03,-92.65 46.85,-4.31 88.34,30.18 92.65,77.03l-169.68 15.62zm-14.47 -163.46l170.06 -10.78 -0.08 -1.12 0.47 6.15 0.48 6.09 0.48 6.02 0.48 5.94 0.48 5.92 0.46 5.71 0.49 5.69 0.47 5.64 0.95 11.07 0.94 10.73 0.92 10.4 0.92 10.12 0.91 9.84 0.88 9.51 0.86 9.19 0.85 8.89 0.81 8.58 0.8 8.3 0.76 8.02 0.74 7.68 -169.64 16.12 -0.72 -7.64 -0.76 -7.94 -0.8 -8.32 -0.83 -8.68 -0.85 -9.01 -0.88 -9.37 -0.9 -9.67 -0.91 -10 -0.94 -10.34 -0.96 -10.7 -0.96 -11.01 -0.97 -11.31 -0.49 -5.78 -0.49 -5.89 -0.5 -6.03 -0.48 -5.96 -0.5 -6.12 -0.48 -6.18 -0.5 -6.27 -0.49 -6.37 -0.08 -1.12zm0.08 1.12c-3.59,-46.91 31.53,-87.87 78.44,-91.46 46.91,-3.59 87.87,31.53 91.46,78.44l-169.9 13.02zm147.95 -307.11l-167.14 -33.12 168.62 11.52 0.8 13.39 0.78 13.15 0.79 12.91 0.78 12.69 0.77 12.46 0.77 12.27 0.76 12.04 0.74 11.77 0.75 11.55 0.74 11.4 0.72 11.12 0.71 10.87 1.4 21.16 1.35 20.24 1.29 19.33 1.25 18.44 1.19 17.54 1.13 16.67 1.07 15.78 0.99 14.9 0.92 14 0.85 13.13 -170.06 10.78 -0.83 -12.85 -0.9 -13.82 -0.99 -14.74 -1.05 -15.68 -1.13 -16.63 -1.19 -17.56 -1.25 -18.5 -1.31 -19.43 -1.35 -20.32 -1.4 -21.22 -0.73 -11.01 -0.72 -11.2 -0.74 -11.38 -0.75 -11.69 -0.76 -11.91 -0.76 -12.1 -0.77 -12.33 -0.79 -12.58 -0.78 -12.81 -0.79 -13.03 -0.8 -13.25 -0.8 -13.47 168.62 11.52zm-168.62 -11.52c-2.78,-46.97 33.04,-87.31 80.01,-90.09 46.97,-2.78 87.31,33.04 90.09,80.01l-170.1 10.08z"/>
   <path id="_1_2" class="fil3" d="M8608.59 9261.26c-18.85,95.14 -38.29,183.15 -57.03,265.2 -19.04,81.66 -37.52,155.6 -55.64,223.23l-264.58 992.78 -1036.81 0 682.5 -2553.3 1422.82 0 32 939.91c0.59,24.41 1.87,50.35 2.23,77.67 0.62,27.48 0.62,66.61 0.62,116.4 0,38.36 -0.62,76.58 -1.6,115.05 -1.25,38.87 -2.96,78.91 -6.25,121.88 17.61,-39.43 39.42,-83.56 65.14,-133.46 25.72,-49.69 59.04,-110.48 100.98,-181.91l610.23 -1055.54 1461.04 0 -684.07 2553.3 -1033.55 0 278.35 -1052.08c3.4,-15.41 13.27,-49.06 28.54,-100.39 15.49,-51.95 47.09,-153.56 93.89,-307.26l-55.39 92.66c-86.91,146.31 -149.71,249.6 -187.96,308.2l-677.2 1058.87 -591.12 0 -92.29 -1003.01c-3.8,-39.97 -9.13,-93.86 -14.28,-161.04 -4.24,-66.86 -12.02,-172.74 -20.57,-317.16z"/>
  </g>
 </g>
</svg>
